<svg width="266" height="242" viewBox="0 0 266 242" xmlns="http://www.w3.org/2000/svg" xmlns:xlink="http://www.w3.org/1999/xlink"><svg id="all-1" width="18" height="18" viewBox="-1 -1 18 18" x="230" y="126"><style>.aast0{fill-rule:evenodd;clip-rule:evenodd;fill:#5e646c}</style><g id="aaXMLID_2_"><g id="aaXMLID_42_"><path id="aaXMLID_44_" class="aast0" d="M2 3v2h12V3H2zm0 6h12V7H2v2zm0 4h12v-2H2v2z"/></g></g></svg><svg id="all-2" width="18" height="18" viewBox="-1 -1 18 18" x="54" y="206"><style>.abst0{fill-rule:evenodd;clip-rule:evenodd;fill:#008bff}</style><g id="abXMLID_2_"><g id="abXMLID_42_"><path id="abXMLID_44_" class="abst0" d="M2 3v2h12V3H2zm0 6h12V7H2v2zm0 4h12v-2H2v2z"/></g></g></svg><svg id="arrow-1" width="18" height="18" viewBox="-1 -1 18 18" x="230" y="162"><style>.acst0{fill-rule:evenodd;clip-rule:evenodd;fill:#78808c}</style><g id="acXMLID_16_"><path id="acXMLID_17_" class="acst0" d="M10.5 8l-.7-.7-3.6-3.5-.7.7L9.1 8l-3.6 3.5.7.7 3.6-3.5z"/></g></svg><svg id="arrow-2" width="18" height="18" viewBox="-1 -1 18 18" x="230" y="180"><style>.adst0{fill-rule:evenodd;clip-rule:evenodd;fill:#008bff}</style><g id="adXMLID_16_"><path id="adXMLID_17_" class="adst0" d="M10.5 8l-.7-.7-3.6-3.5-.7.7L9.1 8l-3.6 3.5.7.7 3.6-3.5z"/></g></svg><svg id="arrow-812-1" viewBox="-1 -1 10 14" width="10" height="14" x="170" y="136"><style>.aest0{fill-rule:evenodd;clip-rule:evenodd;fill:#7d848d}</style><g id="aeXMLID_2_"><g id="aeXMLID_48_"><path id="aeXMLID_49_" class="aest0" d="M8 6L6.5 4.5 2 0 .5 1.5 5 6 .5 10.5 2 12l4.5-4.5z"/></g></g></svg><svg id="arrow-812-2" viewBox="-1 -1 10 14" width="10" height="14" x="180" y="136"><style>.afst0{fill-rule:evenodd;clip-rule:evenodd;fill:#00a4ff}</style><g id="afXMLID_2_"><g id="afXMLID_48_"><path id="afXMLID_49_" class="afst0" d="M8 6L6.5 4.5 2 0 .5 1.5 5 6 .5 10.5 2 12l4.5-4.5z"/></g></g></svg><svg id="arrow-down" width="18" height="18" viewBox="-1 -1 18 18" x="180" y="224"><style>.agst0{fill-rule:evenodd;clip-rule:evenodd;fill:#7f7f7f}</style><path class="agst0" d="M13.6 4L8 9.3 2.4 4 1 5.3 8 12l7-6.7z"/></svg><svg width="18" height="18" viewBox="-1 -1 18 18" id="arrow-down-#00a4ff" x="198" y="224"><style>.ahst0{fill-rule:evenodd;clip-rule:evenodd;fill:#00a4ff}</style><path class="ahst0" d="M13.6 4L8 9.3 2.4 4 1 5.3 8 12l7-6.7z"/></svg><svg id="arrow-up" width="18" height="18" viewBox="-1 -1 18 18" x="248" y="90"><style>.aist0{fill-rule:evenodd;clip-rule:evenodd;fill:#7f7f7f}</style><path class="aist0" d="M13.6 12L8 6.7 2.4 12 1 10.7 8 4l7 6.7z"/></svg><svg width="18" height="18" viewBox="-1 -1 18 18" id="arrow-up-#00a4ff" x="248" y="108"><style>.ajst0{fill-rule:evenodd;clip-rule:evenodd;fill:#00a4ff}</style><path class="ajst0" d="M13.6 12L8 6.7 2.4 12 1 10.7 8 4l7 6.7z"/></svg><svg id="ask-1616" data-name="图层 1" width="18" height="18" viewBox="-1 -1 18 18" x="248" y="126"><defs><style>.akcls-1{fill:#7d848d}</style></defs><title>2</title><path class="akcls-1" d="M8 1.75a6 6 0 0 1 6.25 5.75A6 6 0 0 1 8 13.25 5.2 5.2 0 0 1 6.11 13l-.63-.24-.63.24-1.1.44v-1.7l-.46-.5A5.48 5.48 0 0 1 1.75 7.5 6 6 0 0 1 8 1.75M8 0a7.8 7.8 0 0 0-8 7.5 7.23 7.23 0 0 0 2 4.9V16l3.5-1.4A6.9 6.9 0 0 0 8 15a7.8 7.8 0 0 0 8-7.5A7.8 7.8 0 0 0 8 0z"/><path class="akcls-1" d="M9.9 3.94a3.49 3.49 0 0 0-2.09-.6 3 3 0 0 0-1.62.43A2.64 2.64 0 0 0 5.06 6v.13h1.8V6a1.48 1.48 0 0 1 .24-.79.84.84 0 0 1 .78-.35.89.89 0 0 1 .77.28 1.14 1.14 0 0 1 .22.67 1 1 0 0 1-.19.58 1.24 1.24 0 0 1-.28.29L8 7a2.29 2.29 0 0 0-.76.85A3.87 3.87 0 0 0 7.06 9h1.71a1.93 1.93 0 0 1 .05-.43 1 1 0 0 1 .37-.5l.38-.29a4.09 4.09 0 0 0 .81-.78 2.07 2.07 0 0 0 .37-1.25 2.11 2.11 0 0 0-.85-1.81zM7.02 10h1.86v1.58H7.02z"/></svg><svg version="undefined" width="18" height="18" viewBox="-1 -1 18 18" id="ask-1616-#00a4ff" x="248" y="144"><defs><style>.alcls-1{fill:#00a4ff}</style></defs><path class="alcls-1" d="M8 1.75a6 6 0 0 1 6.25 5.75A6 6 0 0 1 8 13.25 5.2 5.2 0 0 1 6.11 13l-.63-.24-.63.24-1.1.44v-1.7l-.46-.5A5.48 5.48 0 0 1 1.75 7.5 6 6 0 0 1 8 1.75M8 0a7.8 7.8 0 0 0-8 7.5 7.23 7.23 0 0 0 2 4.9V16l3.5-1.4A6.9 6.9 0 0 0 8 15a7.8 7.8 0 0 0 8-7.5A7.8 7.8 0 0 0 8 0z"/><path class="alcls-1" d="M9.9 3.94a3.49 3.49 0 0 0-2.09-.6 3 3 0 0 0-1.62.43A2.64 2.64 0 0 0 5.06 6v.13h1.8V6a1.48 1.48 0 0 1 .24-.79.84.84 0 0 1 .78-.35.89.89 0 0 1 .77.28 1.14 1.14 0 0 1 .22.67 1 1 0 0 1-.19.58 1.24 1.24 0 0 1-.28.29L8 7a2.29 2.29 0 0 0-.76.85A3.87 3.87 0 0 0 7.06 9h1.71a1.93 1.93 0 0 1 .05-.43 1 1 0 0 1 .37-.5l.38-.29a4.09 4.09 0 0 0 .81-.78 2.07 2.07 0 0 0 .37-1.25 2.11 2.11 0 0 0-.85-1.81zM7.02 10h1.86v1.58H7.02z"/></svg><svg data-name="图层 1" width="18" height="18" viewBox="-1 -1 18 18" id="c" x="135" y="27"><title>复-常态</title><path fill="#fff" d="M.5.5h15v15H.5z"/><path d="M15 1v14H1V1h14m1-1H0v16h16V0z" fill="#ddd"/></svg><svg data-name="图层 1" width="18" height="18" viewBox="-1 -1 18 18" id="c-c" x="78" y="186"><title>复-选中</title><path d="M0 0h16v16H0z" fill="#00a4ff"/><path fill="#fff" d="M13.8 5.4L12.5 4l-6 6.3-2.4-2.5-1.3 1.4 2.4 2.4L6.5 13l1.3-1.4 6-6.2z"/></svg><svg data-name="图层 1" width="18" height="18" viewBox="-1 -1 18 18" id="c-d" x="96" y="186"><title>复-不可点</title><path fill="#f7f8fa" d="M.5.5h15v15H.5z"/><path d="M15 1v14H1V1h14m1-1H0v16h16V0z" fill="#ddd"/></svg><svg data-name="图层 1" width="18" height="18" viewBox="-1 -1 18 18" id="c-d-c" x="168" y="186"><title>复-不可点02</title><path fill="#f7f8fa" d="M.5.5h15v15H.5z"/><path d="M15 1v14H1V1h14m1-1H0v16h16z" fill="#ddd"/><path fill="#ddd" d="M13.8 5.4L12.5 4l-6 6.3-2.4-2.5-1.3 1.4 2.4 2.4L6.5 13l1.3-1.4 6-6.2z"/></svg><svg id="close" viewBox="-1 -1 18 18" width="18" height="18" x="126" y="206"><style>.aqst0{fill:#fff}</style><path class="aqst0" d="M13.5 14.5c-.3 0-.5-.1-.7-.3l-11-11c-.4-.4-.4-1 0-1.4s1-.4 1.4 0l11 11c.4.4.4 1 0 1.4-.2.2-.4.3-.7.3z"/><path class="aqst0" d="M2.5 14.5c-.3 0-.5-.1-.7-.3-.4-.4-.4-1 0-1.4l11-11c.4-.4 1-.4 1.4 0s.4 1 0 1.4l-11 11c-.2.2-.4.3-.7.3z"/></svg><svg id="close" viewBox="-1 -1 18 18" width="18" height="18" x="144" y="206"><style>.arst0{fill:#fff}</style><path class="arst0" d="M13.5 14.5c-.3 0-.5-.1-.7-.3l-11-11c-.4-.4-.4-1 0-1.4s1-.4 1.4 0l11 11c.4.4.4 1 0 1.4-.2.2-.4.3-.7.3z"/><path class="arst0" d="M2.5 14.5c-.3 0-.5-.1-.7-.3-.4-.4-.4-1 0-1.4l11-11c.4-.4 1-.4 1.4 0s.4 1 0 1.4l-11 11c-.2.2-.4.3-.7.3z"/></svg><svg id="close-1" viewBox="-1 -1 18 18" width="18" height="18" x="230"><style>.asst0{fill:#0085f2}</style><path class="asst0" d="M13.5 14.5c-.3 0-.5-.1-.7-.3l-11-11c-.4-.4-.4-1 0-1.4s1-.4 1.4 0l11 11c.4.4.4 1 0 1.4-.2.2-.4.3-.7.3z"/><path class="asst0" d="M2.5 14.5c-.3 0-.5-.1-.7-.3-.4-.4-.4-1 0-1.4l11-11c.4-.4 1-.4 1.4 0s.4 1 0 1.4l-11 11c-.2.2-.4.3-.7.3z"/></svg><svg id="close-1" viewBox="-1 -1 18 18" width="18" height="18" x="230" y="18"><style>.atst0{fill:#0085f2}</style><path class="atst0" d="M13.5 14.5c-.3 0-.5-.1-.7-.3l-11-11c-.4-.4-.4-1 0-1.4s1-.4 1.4 0l11 11c.4.4.4 1 0 1.4-.2.2-.4.3-.7.3z"/><path class="atst0" d="M2.5 14.5c-.3 0-.5-.1-.7-.3-.4-.4-.4-1 0-1.4l11-11c.4-.4 1-.4 1.4 0s.4 1 0 1.4l-11 11c-.2.2-.4.3-.7.3z"/></svg><svg width="18" height="18" viewBox="-298 388 18 18" id="close-2424-inline" x="230" y="54"><path fill="#FFF" d="M-283.5 403.5c-.3 0-.5-.1-.7-.3l-11-11c-.4-.4-.4-1 0-1.4.4-.4 1-.4 1.4 0l11 11c.4.4.4 1 0 1.4-.2.2-.4.3-.7.3z"/><path fill="#FFF" d="M-294.5 403.5c-.3 0-.5-.1-.7-.3-.4-.4-.4-1 0-1.4l11-11c.4-.4 1-.4 1.4 0 .4.4.4 1 0 1.4l-11 11c-.2.2-.4.3-.7.3z"/></svg><svg id="csdn" viewBox="-1 -1 18 18" width="18" height="18" x="230" y="72"><style>.avst0{fill-rule:evenodd;clip-rule:evenodd;fill:#fff}</style><path id="avXMLID_2_" class="avst0" d="M15 1.8l-1 3s-8.5-1.9-9.1 3c-.1 1.3.6 4.5 8.1 3-.3 1.4-1 3-1 3S4.2 15 1.8 11.1c-2.4-4 1.1-7.2 3.4-8.2 2-.9 4.9-1.7 9.8-1.1z"/></svg><svg id="doc-1616" data-name="图层 1" width="18" height="18" viewBox="-1 -1 18 18" x="230" y="90"><defs><style>.awcls-1{fill:none}.cls-2{clip-path:url(#awclip-path)}.awcls-3{fill:#7c848e}</style><clipPath id="awclip-path"><circle class="awcls-1" cx="363" cy="96" r="35"/></clipPath></defs><title>icon</title><path class="awcls-3" d="M10 4H6a1 1 0 0 0-1 1v6a1 1 0 0 0 2 0v-1h3a1 1 0 0 0 1-1V5a1 1 0 0 0-1-1zM9 8H7V6h2zm4-8H2a2 2 0 0 0-2 2v12a2 2 0 0 0 2 2h12a2 2 0 0 0 2-2V3zm1 14H2V2h10l2 2z"/></svg><svg width="18" height="18" viewBox="-1 -1 18 18" id="error-icon" x="230" y="108"><g fill="#E54545"><path d="M8 1a7 7 0 1 0 0 14A7 7 0 0 0 8 1zm0 12c-2.757 0-5-2.243-5-5s2.243-5 5-5 5 2.243 5 5-2.243 5-5 5z"/><path d="M7 4h2v5H7zm0 6h2v2H7z"/></g></svg><svg id="event" width="20" height="20" viewBox="-1 -1 20 20" x="204" y="164"><style>.ayst0{fill:#fff}</style><path class="ayst0" d="M13.1 2c.2 0 .5 0 .7.3.3.3.3.7.2 1l-.2.7h-3.1l1.7-1.7c.2-.3.5-.3.7-.3M4.9 2c.2 0 .5 0 .7.3L7.3 4H4.2L4 3.3c-.1-.3-.1-.7.2-1 .3-.3.6-.3.7-.3m8.2-2c-.8 0-1.5.3-2.1.9L9 2.8 7.1.9C6.5.3 5.7 0 4.9 0c-.7 0-1.5.3-2.1.9-.8.8-1.1 2-.7 3.1H0v7h1v7h16v-7h1V4h-2.1c.4-1.1.1-2.3-.7-3.1-.6-.6-1.4-.9-2.1-.9zM2 9V6h14v3H2zm8 7v-5h5v5h-5zm-7 0v-5h5v5H3z"/></svg><svg id="facebook" viewBox="-1 -1 18 18" width="18" height="18" x="230" y="144"><style>.azst0{fill-rule:evenodd;clip-rule:evenodd;fill:#fff}</style><path id="azXMLID_3_" class="azst0" d="M13 2H3c-.6 0-1 .4-1 1v10c0 .6.4 1 1 1h5V9H7V7h1V6c0-.5.1-2 2-2h2v2h-1c-.3 0-1 0-1 .2V7h2l-.8 2H10v5h3c.6 0 1-.4 1-1V3c0-.6-.4-1-1-1z"/></svg><svg id="feedback" width="20" height="20" viewBox="-1 -1 20 20" x="146" y="73"><style>.bast0{fill:#666}</style><g id="baXMLID_72_"><path id="baXMLID_78_" class="bast0" d="M5 13h4l8.7-8.7c.4-.4.4-1 0-1.4L15.1.3c-.2-.2-.5-.3-.7-.3-.3 0-.5.1-.7.3L5 9v4zm9.4-10.6l1.2 1.2-1 1-1.2-1.2 1-1zM7 9.8l4.4-4.5 1.2 1.2L8.2 11H7V9.8zm9 6.2H2V2h7V0H0v18h18V9h-2v7z"/></g></svg><svg id="fs-icon-1" width="34" height="34" viewBox="-1 -1 34 34" x="34" y="152"><style>.bbst0{fill-rule:evenodd;clip-rule:evenodd;fill:#fff}</style><g id="bbXMLID_15_"><path id="bbXMLID_29_" class="bbst0" d="M16 0C7.2 0 0 7.2 0 16s7.2 16 16 16 16-7.2 16-16S24.8 0 16 0zm0 30C8.3 30 2 23.7 2 16S8.3 2 16 2s14 6.3 14 14-6.3 14-14 14z"/><path id="bbXMLID_30_" class="bbst0" d="M22.5 12.3l-1.4-.5c-.3.9-.6 1.8-.9 2.6h-1.5c-.3-1-.6-1.9-.9-2.6l-1.4.5.9 2.1h-1.9v1.5h8.3v-1.5h-1.8c.1-.6.4-1.3.6-2.1z"/><path id="bbXMLID_31_" class="bbst0" d="M23.1 10H20c-.2-.6-.4-1.1-.5-1.5l-1.5.3c.2.4.4.8.6 1.3h-3.1v1.4h7.7V10z"/><path id="bbXMLID_32_" class="bbst0" d="M10.6 10.5h2.8v8.9h1.3V9.2H9.2v10.5h1.4z"/><path id="bbXMLID_33_" class="bbst0" d="M12.6 11.6h-1.2v5.2c0 1.4-.2 2.5-.6 3.4-.4.8-1.1 1.5-2.3 2l.8 1.2c1.1-.5 1.9-1.3 2.4-2.3.5-1.1.8-2.5.8-4.3v-5.2z"/><path id="bbXMLID_34_" class="bbst0" d="M12.3 20.7c.9.9 1.6 1.8 2.1 2.6l1-1c-.6-.8-1.4-1.7-2.2-2.5l-.9.9z"/><path id="bbXMLID_37_" class="bbst0" d="M16.1 23.4h1.4v-.8h3.6v.8h1.4v-6.3H16v6.3zm1.5-4.9h3.6v2.6h-3.6v-2.6z"/></g></svg><svg id="fs-icon-1-h" width="34" height="34" viewBox="-1 -1 34 34" x="68" y="152"><style>.bcst0{fill-rule:evenodd;clip-rule:evenodd;fill:#00a4ff}</style><g id="bcXMLID_15_"><path id="bcXMLID_29_" class="bcst0" d="M16 0C7.2 0 0 7.2 0 16s7.2 16 16 16 16-7.2 16-16S24.8 0 16 0zm0 30C8.3 30 2 23.7 2 16S8.3 2 16 2s14 6.3 14 14-6.3 14-14 14z"/><path id="bcXMLID_30_" class="bcst0" d="M22.5 12.3l-1.4-.5c-.3.9-.6 1.8-.9 2.6h-1.5c-.3-1-.6-1.9-.9-2.6l-1.4.5.9 2.1h-1.9v1.5h8.3v-1.5h-1.8c.1-.6.4-1.3.6-2.1z"/><path id="bcXMLID_31_" class="bcst0" d="M23.1 10H20c-.2-.6-.4-1.1-.5-1.5l-1.5.3c.2.4.4.8.6 1.3h-3.1v1.4h7.7V10z"/><path id="bcXMLID_32_" class="bcst0" d="M10.6 10.5h2.8v8.9h1.3V9.2H9.2v10.5h1.4z"/><path id="bcXMLID_33_" class="bcst0" d="M12.6 11.6h-1.2v5.2c0 1.4-.2 2.5-.6 3.4-.4.8-1.1 1.5-2.3 2l.8 1.2c1.1-.5 1.9-1.3 2.4-2.3.5-1.1.8-2.5.8-4.3v-5.2z"/><path id="bcXMLID_34_" class="bcst0" d="M12.3 20.7c.9.9 1.6 1.8 2.1 2.6l1-1c-.6-.8-1.4-1.7-2.2-2.5l-.9.9z"/><path id="bcXMLID_37_" class="bcst0" d="M16.1 23.4h1.4v-.8h3.6v.8h1.4v-6.3H16v6.3zm1.5-4.9h3.6v2.6h-3.6v-2.6z"/></g></svg><svg id="fs-icon-2" width="34" height="34" viewBox="-1 -1 34 34" x="102" y="152"><style>.bdst0{fill-rule:evenodd;clip-rule:evenodd;fill:#fff}</style><path class="bdst0" d="M16 32C7.2 32 0 24.8 0 16S7.2 0 16 0s16 7.2 16 16-7.2 16-16 16zm0-30C8.3 2 2 8.3 2 16s6.3 14 14 14 14-6.3 14-14S23.7 2 16 2zm5 13v2h-4v2h4v2h-4v3h-2v-3h-4v-2h4v-2h-4v-2h3l-4-6h2.3l3.7 5.4L19.7 9H22l-4 6h3z"/></svg><svg id="fs-icon-2-h" width="34" height="34" viewBox="-1 -1 34 34" x="170" y="152"><style>.best0{fill-rule:evenodd;clip-rule:evenodd;fill:#00a4ff}</style><path class="best0" d="M16 32C7.2 32 0 24.8 0 16S7.2 0 16 0s16 7.2 16 16-7.2 16-16 16zm0-30C8.3 2 2 8.3 2 16s6.3 14 14 14 14-6.3 14-14S23.7 2 16 2zm5 13v2h-4v2h4v2h-4v3h-2v-3h-4v-2h4v-2h-4v-2h3l-4-6h2.3l3.7 5.4L19.7 9H22l-4 6h3z"/></svg><svg id="fs-icon-3" width="34" height="34" viewBox="-1 -1 34 34" x="34" y="118"><style>.bfst0,.bfst1{fill:#fff}.bfst1{fill-rule:evenodd;clip-rule:evenodd}</style><g id="bfXMLID_54_"><path id="bfXMLID_55_" class="bfst0" d="M16 0C7.2 0 0 7.2 0 16s7.2 16 16 16 16-7.2 16-16S24.8 0 16 0zm0 30C8.3 30 2 23.7 2 16S8.3 2 16 2s14 6.3 14 14-6.3 14-14 14z"/></g><g id="bfXMLID_26_"><g id="bfXMLID_91_"><path id="bfXMLID_92_" class="bfst1" d="M23.1 16.1l.7-1.3c-2.2-.3-4.2-.8-5.9-1.4 1.3-.8 2.5-1.8 3.4-2.9V9.2h-6.4l.6-.9-1.6-.3c-1.2 1.7-2.7 3-4.4 4l1 1.2c.8-.5 1.5-1 2.2-1.6.6.6 1.4 1.2 2.2 1.7-1.8.7-3.8 1.2-6.1 1.5l.7 1.3c.5-.1 1-.2 1.6-.3V23h1.5v-.6h7.6v.6h1.5v-7.2H11.3c1.8-.4 3.5-1 5-1.7 1.9.9 4.2 1.6 6.8 2zm-6.1 1h3.1v1.4H17v-1.4zm0 2.6h3.1v1.4H17v-1.4zm-4.6-2.6h3.1v1.4h-3.1v-1.4zm0 2.6h3.1v1.4h-3.1v-1.4zm1.1-9l.2-.2h5.5c-.8.8-1.8 1.5-3 2.1-1-.5-1.9-1.1-2.7-1.9z"/></g></g></svg><svg id="fs-icon-3-h" width="34" height="34" viewBox="-1 -1 34 34" x="68" y="118"><style>.bgst0,.bgst1{fill:#00a4ff}.bgst1{fill-rule:evenodd;clip-rule:evenodd}</style><g id="bgXMLID_60_"><path id="bgXMLID_61_" class="bgst0" d="M16 0C7.2 0 0 7.2 0 16s7.2 16 16 16 16-7.2 16-16S24.8 0 16 0zm0 30C8.3 30 2 23.7 2 16S8.3 2 16 2s14 6.3 14 14-6.3 14-14 14z"/></g><g id="bgXMLID_26_"><g id="bgXMLID_91_"><path id="bgXMLID_92_" class="bgst1" d="M23.1 16.1l.7-1.3c-2.2-.3-4.2-.8-5.9-1.4 1.3-.8 2.5-1.8 3.4-2.9V9.2h-6.4l.6-.9-1.6-.3c-1.2 1.7-2.7 3-4.4 4l1 1.2c.8-.5 1.5-1 2.2-1.6.6.6 1.4 1.2 2.2 1.7-1.8.7-3.8 1.2-6.1 1.5l.7 1.3c.5-.1 1-.2 1.6-.3V23h1.5v-.6h7.6v.6h1.5v-7.2H11.3c1.8-.4 3.5-1 5-1.7 1.9.9 4.2 1.6 6.8 2zm-6.1 1h3.1v1.4H17v-1.4zm0 2.6h3.1v1.4H17v-1.4zm-4.6-2.6h3.1v1.4h-3.1v-1.4zm0 2.6h3.1v1.4h-3.1v-1.4zm1.1-9l.2-.2h5.5c-.8.8-1.8 1.5-3 2.1-1-.5-1.9-1.1-2.7-1.9z"/></g></g></svg><svg id="fs-icon-4" width="34" height="34" viewBox="-1 -1 34 34" x="102" y="118"><style>.bhst0{fill-rule:evenodd;clip-rule:evenodd;fill:#fff}</style><path class="bhst0" d="M16 32C7.2 32 0 24.8 0 16S7.2 0 16 0s16 7.2 16 16-7.2 16-16 16zm0-30C8.3 2 2 8.3 2 16s6.3 14 14 14 14-6.3 14-14S23.7 2 16 2zm1.7 22c-6.3 0-5.9-4-5.9-4 0-2.3 1.3-4.3 3.2-5.3-.5-.6-.8-1.3-.8-2.2 0-1.9 1.5-3.5 3.5-3.5 1.9 0 3.5 1.6 3.5 3.5 0 .8-.3 1.6-.8 2.2 1.9 1 3.2 3 3.2 5.3.1 0 .3 4-5.9 4zm0-13c-.8 0-1.5.7-1.5 1.5s.7 1.5 1.5 1.5 1.5-.7 1.5-1.5-.7-1.5-1.5-1.5zm4 9c0-2.2-1.8-4-3.9-4-2.2 0-3.9 1.8-3.9 4 0 0-.3 2 3.9 2 4 0 3.9-2 3.9-2zM12.5 9.7c-.5.6-.8 1.4-.8 2.2 0 1 .4 1.8 1 2.5-.8.4-2 1-2.4 1.6l-.4.4c-.5.9-.9 1.6-.9 3.3 0 0 0 .3.1.7-1.2-.9-1.2-2.2-1.2-2.2 0-1.9 1-3.5 2.6-4.3-.4-.5-.6-1.1-.6-1.7 0-1.5 1.2-2.8 2.8-2.8h.3c-.1.1-.2.1-.2.2-.2 0-.2.1-.3.1z"/></svg><svg id="fs-icon-4-h" width="34" height="34" viewBox="-1 -1 34 34" x="136" y="118"><style>.bist0{fill-rule:evenodd;clip-rule:evenodd;fill:#00a4ff}</style><path class="bist0" d="M16 32C7.2 32 0 24.8 0 16S7.2 0 16 0s16 7.2 16 16-7.2 16-16 16zm0-30C8.3 2 2 8.3 2 16s6.3 14 14 14 14-6.3 14-14S23.7 2 16 2zm1.7 22c-6.3 0-5.9-4-5.9-4 0-2.3 1.3-4.3 3.2-5.3-.5-.6-.8-1.3-.8-2.2 0-1.9 1.5-3.5 3.5-3.5 1.9 0 3.5 1.6 3.5 3.5 0 .8-.3 1.6-.8 2.2 1.9 1 3.2 3 3.2 5.3.1 0 .3 4-5.9 4zm0-13c-.8 0-1.5.7-1.5 1.5s.7 1.5 1.5 1.5 1.5-.7 1.5-1.5-.7-1.5-1.5-1.5zm4 9c0-2.2-1.8-4-3.9-4-2.2 0-3.9 1.8-3.9 4 0 0-.3 2 3.9 2 4 0 3.9-2 3.9-2zM12.5 9.7c-.5.6-.8 1.4-.8 2.2 0 1 .4 1.8 1 2.5-.8.4-2 1-2.4 1.6l-.4.4c-.5.9-.9 1.6-.9 3.3 0 0 0 .3.1.7-1.2-.9-1.2-2.2-1.2-2.2 0-1.9 1-3.5 2.6-4.3-.4-.5-.6-1.1-.6-1.7 0-1.5 1.2-2.8 2.8-2.8h.3c-.1.1-.2.1-.2.2-.2 0-.2.1-.3.1z"/></svg><svg id="fs-icon-5" width="34" height="34" viewBox="-1 -1 34 34" x="170"><style>.bjst0{fill:#fff}</style><g id="bjXMLID_68_"><path id="bjXMLID_69_" class="bjst0" d="M16 0C7.2 0 0 7.2 0 16s7.2 16 16 16 16-7.2 16-16S24.8 0 16 0zm0 30C8.3 30 2 23.7 2 16S8.3 2 16 2s14 6.3 14 14-6.3 14-14 14zm3.4-12.8c-.8 0-1.3.4-2 .4s-3.5-2.9-3.5-3.7c0-.8.7-.6.7-1.5 0-.6-2.4-4.5-3.3-4.5-.9.1-3.3 2-3.3 3.5C8 15.8 15.8 24 20.7 24c1.4 0 3.3-1.7 3.3-3.4 0-.6-3.8-3.3-4.6-3.4zm2.3 4.5c-.2.2-.4.3-.6.4-.1.1-.3.1-.4.1-.9 0-2-.4-3.3-1.1-1.2-.7-2.5-1.8-3.7-3-1.2-1.2-2.2-2.5-2.9-3.7-.4-.6-.6-1.2-.8-1.7-.2-.5-.3-.9-.3-1.3 0 0 0-.2.1-.3.1-.2.3-.4.5-.6.2-.2.5-.4.7-.5 0 .1.1.1.1.2.2.3.5.6.7 1 .4.6.7 1.2.8 1.5 0 .1-.1.1-.1.2-.2.4-.4.7-.4 1.5 0 .5.2 1.1.8 1.8.3.4.7.9 1.2 1.4.5.5 1 .9 1.4 1.2.7.5 1.2.8 1.8.8.7 0 1.2-.3 1.6-.5.1-.1.2 0 .3.1.3.1.8.4 1.5 1 .7.5 1.1.8 1.3 1 .1.1-.1.3-.3.5z"/></g></svg><svg id="fs-icon-5-h" width="34" height="34" viewBox="-1 -1 34 34" x="170" y="34"><style>.bkst0{fill:#00a4ff}</style><g id="bkXMLID_68_"><path id="bkXMLID_69_" class="bkst0" d="M16 0C7.2 0 0 7.2 0 16s7.2 16 16 16 16-7.2 16-16S24.8 0 16 0zm0 30C8.3 30 2 23.7 2 16S8.3 2 16 2s14 6.3 14 14-6.3 14-14 14zm3.4-12.8c-.8 0-1.3.4-2 .4s-3.5-2.9-3.5-3.7c0-.8.7-.6.7-1.5 0-.6-2.4-4.5-3.3-4.5-.9.1-3.3 2-3.3 3.5C8 15.8 15.8 24 20.7 24c1.4 0 3.3-1.7 3.3-3.4 0-.6-3.8-3.3-4.6-3.4zm2.3 4.5c-.2.2-.4.3-.6.4-.1.1-.3.1-.4.1-.9 0-2-.4-3.3-1.1-1.2-.7-2.5-1.8-3.7-3-1.2-1.2-2.2-2.5-2.9-3.7-.4-.6-.6-1.2-.8-1.7-.2-.5-.3-.9-.3-1.3 0 0 0-.2.1-.3.1-.2.3-.4.5-.6.2-.2.5-.4.7-.5 0 .1.1.1.1.2.2.3.5.6.7 1 .4.6.7 1.2.8 1.5 0 .1-.1.1-.1.2-.2.4-.4.7-.4 1.5 0 .5.2 1.1.8 1.8.3.4.7.9 1.2 1.4.5.5 1 .9 1.4 1.2.7.5 1.2.8 1.8.8.7 0 1.2-.3 1.6-.5.1-.1.2 0 .3.1.3.1.8.4 1.5 1 .7.5 1.1.8 1.3 1 .1.1-.1.3-.3.5z"/></g></svg><svg id="github" viewBox="-38 4 18 18" width="18" height="18" x="93" y="100"><style>.blst0{fill:#fff}</style><path id="blXMLID_1_" class="blst0" d="M-29 6.2c-3.9 0-7 3.1-7 7 0 3.1 2 5.7 4.8 6.6.4.1.5-.1.5-.3v-1.3c-1.8.3-2.2-.4-2.4-.8-.1-.2-.4-.8-.7-1-.2-.1-.6-.5 0-.5s.9.5 1.1.7c.6 1.1 1.6.8 2 .6.1-.5.2-.8.4-.9-1.6-.2-3.2-.8-3.2-3.5 0-.8.3-1.4.7-1.9 0-.2-.2-.9.1-1.8 0 0 .6-.2 1.9.7.6-.2 1.2-.2 1.8-.2s1.2.1 1.8.2c1.3-.9 1.9-.7 1.9-.7.4 1 .1 1.7.1 1.9.4.5.7 1.1.7 1.9 0 2.7-1.6 3.3-3.2 3.5.3.2.5.6.5 1.3v1.9c0 .2.1.4.5.3 2.8-1 4.8-3.6 4.8-6.6-.1-4-3.2-7.1-7.1-7.1z"/></svg><svg width="18" height="18" viewBox="-1 -1 18 18" id="gksp" x="111" y="100"><path fill-rule="evenodd" clip-rule="evenodd" fill="#00a4ff" d="M8 1C4.1 1 1 4.1 1 8s3.1 7 7 7 7-3.1 7-7-3.1-7-7-7zm0 13c-3.3 0-6-2.7-6-6s2.7-6 6-6 6 2.7 6 6-2.7 6-6 6zm2-6.7L7 5l-1-.7v7.5l1-.8 3.6-2.9.3-.1-.9-.7zM7 9.6V6.3L9.2 8 7 9.6z"/></svg><svg id="global-1616-1" viewBox="-6 6 18 18" width="18" height="18" x="129" y="100"><style>.bnst0{fill:#fff}.bnst1{fill:none;stroke:#fff;stroke-miterlimit:10}</style><g id="bnXMLID_2_"><g id="bnXMLID_41_"><path id="bnXMLID_42_" class="bnst0" d="M3 8c-3.9 0-7 3.1-7 7s3.1 7 7 7 7-3.1 7-7-3.1-7-7-7zm0 13c-3.3 0-6-2.7-6-6s2.7-6 6-6 6 2.7 6 6-2.7 6-6 6z"/></g></g><path id="bnXMLID_3_" class="bnst1" d="M-2.5 12.1s1.4-.4 3.2-.8c1 .7-.3 2.2-.9 2.6s0 1.7 0 1.7v.9h.9l.9 1.5.9.5.9-.3s1.1-1.5 0-3.5c1.9 0 1.7-1.7 1.7-1.7l4.2.7s-.9-4.1-5.1-5C0 7.8-2.3 11-2.5 12.1z"/></svg><svg id="global-1616-1" viewBox="-1 -1 18 18" width="18" height="18" x="147" y="100"><style>.bost0{fill:#fff}.bost0,.bost1,.bost2{fill-rule:evenodd;clip-rule:evenodd}.bost1{opacity:.2;fill:#fff}.bost2{fill:none;stroke:#fff;stroke-miterlimit:10}</style><g id="boXMLID_2_"><g id="boXMLID_41_"><path id="boXMLID_42_" class="bost0" d="M8 1C4.1 1 1 4.1 1 8s3.1 7 7 7 7-3.1 7-7-3.1-7-7-7zm0 13c-3.3 0-6-2.7-6-6s2.7-6 6-6 6 2.7 6 6-2.7 6-6 6z"/></g></g><path id="boXMLID_1_" class="bost1" d="M2.5 5.1s1.4-.4 3.2-.8c1 .7-.3 2.2-.9 2.6-.6.4 0 1.7 0 1.7v.9h.9l.9 1.5.9.5.9-.3s1.1-1.5 0-3.5c1.9 0 1.7-1.7 1.7-1.7l4.2.7s-.9-4.1-5.1-5C5 .8 2.7 4 2.5 5.1z"/><path id="boXMLID_3_" class="bost2" d="M2.5 5.1s1.4-.4 3.2-.8c1 .7-.3 2.2-.9 2.6-.6.4 0 1.7 0 1.7v.9h.9l.9 1.5.9.5.9-.3s1.1-1.5 0-3.5c1.9 0 1.7-1.7 1.7-1.7l4.2.7s-.9-4.1-5.1-5C5 .8 2.7 4 2.5 5.1z"/></svg><svg id="global-1616-2" viewBox="-1 -1 18 18" width="18" height="18" x="60" y="186"><style>.bpst0{fill:#00a4ff}.bpst0,.bpst1,.bpst2{fill-rule:evenodd;clip-rule:evenodd}.bpst1{opacity:.2;fill:#598aff}.bpst2{fill:none;stroke:#00a4ff;stroke-miterlimit:10}</style><g id="bpXMLID_2_"><g id="bpXMLID_37_"><path id="bpXMLID_38_" class="bpst0" d="M8 1C4.1 1 1 4.1 1 8s3.1 7 7 7 7-3.1 7-7-3.1-7-7-7zm0 13c-3.3 0-6-2.7-6-6s2.7-6 6-6 6 2.7 6 6-2.7 6-6 6z"/></g></g><path id="bpXMLID_1_" class="bpst1" d="M2.5 5.1s1.4-.4 3.2-.8c1 .7-.3 2.2-.9 2.6-.6.4 0 1.7 0 1.7v.9h.9l.9 1.5.9.5.9-.3s1.1-1.5 0-3.5c1.9 0 1.7-1.7 1.7-1.7l4.2.7s-.9-4.1-5.1-5C5 .8 2.7 4 2.5 5.1z"/><path id="bpXMLID_3_" class="bpst2" d="M2.5 5.1s1.4-.4 3.2-.8c1 .7-.3 2.2-.9 2.6-.6.4 0 1.7 0 1.7v.9h.9l.9 1.5.9.5.9-.3s1.1-1.5 0-3.5c1.9 0 1.7-1.7 1.7-1.7l4.2.7s-.9-4.1-5.1-5C5 .8 2.7 4 2.5 5.1z"/></svg><svg width="26" height="26" viewBox="-294 384 26 26" id="hasmsg-2424-1-inline" x="204"><path fill="#FFF" d="M-271.1 393.9c.3 1 .5 2 .5 3.1 0 2.1-.6 4-1.7 5.6-1.1-2.4-3.2-4.3-5.7-5.1 1.1-.9 1.8-2.2 1.8-3.7 0-2.7-2.1-4.8-4.8-4.8s-4.8 2.1-4.8 4.8c0 1.5.7 2.8 1.8 3.7-2.5.8-4.6 2.7-5.7 5.1-1.1-1.6-1.7-3.5-1.7-5.6 0-5.7 4.7-10.4 10.4-10.4 1.5 0 3 .3 4.3.9.2-.5.4-1 .7-1.4-1.6-.7-3.2-1.1-5-1.1-6.6 0-12 5.4-12 12s5.4 12 12 12 12-5.4 12-12c0-1.3-.2-2.5-.6-3.7-.4.3-.9.5-1.5.6zm-13.1-.1c0-1.8 1.4-3.2 3.2-3.2s3.2 1.4 3.2 3.2c0 1.8-1.4 3.2-3.2 3.2s-3.2-1.4-3.2-3.2zm3.2 13.6c-3 0-5.7-1.3-7.6-3.3 1-3.2 4-5.5 7.6-5.5 3.5 0 6.5 2.3 7.6 5.5-1.9 2-4.6 3.3-7.6 3.3z"/><path fill="#00A4FF" d="M-272 386c1.7 0 3 1.3 3 3s-1.3 3-3 3-3-1.3-3-3 1.3-3 3-3z"/></svg><svg width="26" height="26" viewBox="-294 384 26 26" id="hasmsg-2424-2-inline" x="120" y="73"><path fill="#00A4FF" d="M-271.1 393.9c.3 1 .5 2 .5 3.1 0 2.1-.6 4-1.7 5.6-1.1-2.4-3.2-4.3-5.7-5.1 1.1-.9 1.8-2.2 1.8-3.7 0-2.7-2.1-4.8-4.8-4.8s-4.8 2.1-4.8 4.8c0 1.5.7 2.8 1.8 3.7-2.5.8-4.6 2.7-5.7 5.1-1.1-1.6-1.7-3.5-1.7-5.6 0-5.7 4.7-10.4 10.4-10.4 1.5 0 3 .3 4.3.9.2-.5.4-1 .7-1.4-1.6-.7-3.2-1.1-5-1.1-6.6 0-12 5.4-12 12s5.4 12 12 12 12-5.4 12-12c0-1.3-.2-2.5-.6-3.7-.4.3-.9.5-1.5.6zm-13.1-.1c0-1.8 1.4-3.2 3.2-3.2s3.2 1.4 3.2 3.2c0 1.8-1.4 3.2-3.2 3.2s-3.2-1.4-3.2-3.2zm3.2 13.6c-3 0-5.7-1.3-7.6-3.3 1-3.2 4-5.5 7.6-5.5 3.5 0 6.5 2.3 7.6 5.5-1.9 2-4.6 3.3-7.6 3.3z"/><path fill="#00A4FF" d="M-272 386c1.7 0 3 1.3 3 3s-1.3 3-3 3-3-1.3-3-3 1.3-3 3-3z"/></svg><svg id="icon-level" data-name="图层 1" width="18" height="18" viewBox="-1 -1 18 18" x="114" y="186"><defs><style>.bscls-1{fill:#999}</style></defs><title>高级</title><path class="bscls-1" d="M0 8h2v8H0zm7-4h2v12H7zm7-4h2v16h-2z"/></svg><svg id="icon-step" width="18" height="18" viewBox="-1 -1 18 18" x="132" y="186"><style>.btst0{clip-path:url(#btSVGID_2_)}.btst1{clip-path:url(#btXMLID_8_);fill:#989898}</style><defs><path id="btSVGID_1_" d="M16 13c0 .6-.4 1-1 1H7c-.6 0-1-.4-1-1s.4-1 1-1h8c.6 0 1 .4 1 1zm0-5c0 .6-.4 1-1 1H7c-.6 0-1-.4-1-1s.4-1 1-1h8c.6 0 1 .4 1 1zm0-5c0 .6-.4 1-1 1H7c-.6 0-1-.4-1-1s.4-1 1-1h8c.6 0 1 .4 1 1zM3 9.7c.6-.3 1-1 1-1.7s-.4-1.4-1-1.7V4.7c.6-.3 1-1 1-1.7 0-1.1-.9-2-2-2s-2 .9-2 2c0 .7.4 1.4 1 1.7v1.5C.4 6.6 0 7.3 0 8s.4 1.4 1 1.7v1.5c-.6.3-1 1-1 1.7 0 1.1.9 2 2 2s2-.9 2-2c0-.7-.4-1.4-1-1.7V9.7z"/></defs><clipPath id="btSVGID_2_"><use xlink:href="#btSVGID_1_" overflow="visible"/></clipPath><g class="btst0"><defs><path id="btXMLID_5_" d="M-400-1187h1920v4750H-400z"/></defs><clipPath id="btXMLID_8_"><use xlink:href="#btXMLID_5_" overflow="visible"/></clipPath><path id="btXMLID_6_" class="btst1" d="M-5-4h26v24H-5z"/></g></svg><svg data-name="图层 1" width="18" height="18" viewBox="-1 -1 18 18" id="icon-success" x="150" y="186"><title>icon-success</title><path d="M7.041 8.79L5.3 7.047 3.885 8.461l3.156 3.157L8.456 10.2 12 6.624 10.586 5.21zM8 3a5 5 0 1 1-5 5 5 5 0 0 1 5-5m0-2a7 7 0 1 0 7 7 7 7 0 0 0-7-7z" fill="#0abf5b"/></svg><svg id="icon-tc" width="93" height="18" viewBox="-1 -1 93 18" y="100"><style>.bvst0{fill:#999}</style><g id="bvXMLID_80_"><path id="bvXMLID_81_" class="bvst0" d="M83.8 1.9l-.6 3h-3.8l1.5 2h2l-1.6 8.8h3.4L86.2 7h4.3l-6.7-5.1zM16.4 0H.9L.5 2.3h6L4 15.8h3.4L9.9 2.3H16l.4-2.3zM19 4.7c-4.3 0-7.1 2.6-7.7 5.5-.6 3.3 1.6 5.7 5.9 5.7 2 0 3.8-.3 5.3-1.1l.5-2.5c-1.5 1-3.3 1.5-4.9 1.5-2.2 0-3.9-.9-3.6-2.8h9c.1-.2.2-.6.3-1.1.5-2.3-.4-5.2-4.8-5.2zm1.7 4.5h-5.9c.4-1.1 1.5-2.6 3.6-2.6 2.3 0 2.5 1.6 2.3 2.6zm13.4-4.5c-2.1 0-3.7.8-4.5 1.7h-.1l-3-1.7c-.1.9-.3 2.2-.5 3.5l-1.4 7.6H28l1.2-6.4.3-.9c.5-.8 1.6-1.6 2.9-1.6 1.9 0 2.4 1.2 2.1 2.7l-1.1 6.1h3.4L38 9.4c.6-3.5-1.6-4.7-3.9-4.7zm40.9 0c-2.1 0-3.7.8-4.5 1.7h-.1l-3-1.7c-.1.9-.3 2.2-.5 3.5l-1.4 7.6H69l1.2-6.4.3-.9c.5-.8 1.6-1.6 2.9-1.6 1.9 0 2.4 1.2 2.1 2.7l-1.1 6.1h3.4L79 9.4c.6-3.5-1.6-4.7-4-4.7zm-15.1 0c-4.3 0-7.1 2.6-7.7 5.5-.6 3.3 1.6 5.7 5.9 5.7 2 0 3.8-.3 5.3-1.1l.5-2.5c-1.5 1-3.3 1.5-4.9 1.5-2.2 0-3.9-.9-3.6-2.8h9c.1-.2.2-.6.3-1.1.5-2.3-.4-5.2-4.8-5.2zm1.8 4.5h-5.9c.4-1.1 1.5-2.6 3.6-2.6 2.3 0 2.5 1.6 2.3 2.6zm-22.3 1c-.6 3.3 1.9 5.8 6.1 5.8 1.7 0 3.7-.5 4.5-.7l.6-2.9c-1.2 1.2-2.8 1.4-3.9 1.4-2.3 0-4.1-1.3-3.7-3.5.4-2 2.4-3.5 5-3.5 1.1 0 2.5.3 3.4 1.5l.5-2.9c-.7-.3-1.9-.6-3.7-.6-4.8-.1-8.2 2.2-8.8 5.4z"/></g></svg><svg id="icon-time" width="18" height="18" viewBox="-1 -1 18 18" x="186" y="186"><style>.bwst0{clip-path:url(#bwSVGID_2_)}.bwst1{clip-path:url(#bwXMLID_7_);fill:#989898}</style><defs><path id="bwSVGID_1_" d="M8 2C4.7 2 2 4.7 2 8s2.7 6 6 6 6-2.7 6-6-2.7-6-6-6zm0-2c4.4 0 8 3.6 8 8s-3.6 8-8 8-8-3.6-8-8 3.6-8 8-8zm1 7.6l1.7 1c.5.3.6.9.4 1.4s-.9.6-1.4.4L7 8.7V5c0-.6.4-1 1-1s1 .4 1 1v2.6z"/></defs><clipPath id="bwSVGID_2_"><use xlink:href="#bwSVGID_1_" overflow="visible"/></clipPath><g class="bwst0"><defs><path id="bwXMLID_4_" d="M-495-1187h1920v4750H-495z"/></defs><clipPath id="bwXMLID_7_"><use xlink:href="#bwXMLID_4_" overflow="visible"/></clipPath><path id="bwXMLID_5_" class="bwst1" d="M-5-5h26v26H-5z"/></g></svg><svg width="18" height="18" viewBox="-1 -1 18 18" id="icon-tips" x="204" y="186"><g fill="#444"><path d="M8 1a7 7 0 1 0 0 14A7 7 0 0 0 8 1zm0 13c-3.308 0-6-2.692-6-6s2.692-6 6-6 6 2.692 6 6-2.692 6-6 6z"/><path d="M7.91 10.652a.844.844 0 0 0-.624.24c-.168.152-.252.356-.252.612 0 .24.084.444.252.612s.376.252.624.252c.24 0 .448-.08.624-.24a.853.853 0 0 0 .264-.624c0-.256-.084-.46-.252-.612-.16-.16-.372-.24-.636-.24zm.216-7.02c-.888 0-1.584.256-2.088.768-.504.504-.756 1.192-.756 2.064h1.26c0-.528.108-.936.324-1.224.24-.344.632-.516 1.176-.516.44 0 .78.12 1.02.36.232.248.348.576.348.984 0 .296-.112.588-.336.876l-.204.228c-.752.672-1.204 1.168-1.356 1.488-.16.296-.24.676-.24 1.14v.204h1.284V9.8c0-.296.064-.56.192-.792.112-.232.28-.44.504-.624.568-.496.904-.808 1.008-.936.304-.392.456-.88.456-1.464 0-.728-.24-1.3-.72-1.716-.472-.424-1.096-.636-1.872-.636z"/></g></svg><svg id="icon-video" width="18" height="18" viewBox="-1 -1 18 18" y="206"><style>.byst0{clip-path:url(#bySVGID_2_)}.byst1{clip-path:url(#byXMLID_7_);fill:#989898}</style><defs><path id="bySVGID_1_" d="M2 2v12h12V2H2zm4 3l5 3-5 3V5zM1 0h14c.6 0 1 .4 1 1v14c0 .6-.4 1-1 1H1c-.6 0-1-.4-1-1V1c0-.6.4-1 1-1z"/></defs><clipPath id="bySVGID_2_"><use xlink:href="#bySVGID_1_" overflow="visible"/></clipPath><g class="byst0"><defs><path id="byXMLID_4_" d="M-401-2814h1920v4750H-401z"/></defs><clipPath id="byXMLID_7_"><use xlink:href="#byXMLID_4_" overflow="visible"/></clipPath><path id="byXMLID_5_" class="byst1" d="M-5-5h26v26H-5z"/></g></svg><svg id="icon-view" data-name="图层 1" width="18" height="18" viewBox="-1 -1 18 18" x="18" y="206"><defs><style>.bzcls-1{fill:#999}</style></defs><title>icon</title><path class="bzcls-1" d="M7.5 10C3.36 10 0 11.34 0 13v3h15v-3c0-1.66-3.36-3-7.5-3zm5.5 4H2v-.76C2.51 12.77 4.49 12 7.5 12s5 .77 5.5 1.24zM7.5 9A4.5 4.5 0 1 0 3 4.5 4.5 4.5 0 0 0 7.5 9zm0-7A2.5 2.5 0 1 1 5 4.5 2.5 2.5 0 0 1 7.5 2z"/></svg><svg id="icon-wb" width="18" height="18" viewBox="-298 388 18 18" x="36" y="206"><style>.cast0{fill:#ccc}</style><path class="cast0" d="M-282.1 391.9c-1.1-1.2-2.6-1.6-4-1.3-.3.1-.5.4-.5.7.1.3.4.5.7.5 1-.2 2.1.1 2.9.9.7.8.9 2 .6 3-.1.3.1.7.4.8.3.1.7-.1.8-.4.4-1.4.2-3-.9-4.2zm-1.8 3.8c.3.1.6-.1.7-.3.2-.7.1-1.5-.4-2-.5-.6-1.3-.8-2-.6-.3.1-.5.3-.4.6.1.3.3.5.6.4.3-.1.7 0 1 .3.3.3.3.7.2 1-.2.2 0 .5.3.6zm-1.1 1.1c-.2-.1-.5-.1-.3-.4.3-.6.4-1.2.1-1.6-.5-.7-1.9-.7-3.6 0 0 0-.5.2-.4-.2.3-.8.2-1.5-.2-1.9-.9-.9-3.2 0-5.2 2.1-1.5 1.5-2.4 3.1-2.4 4.5 0 2.7 3.4 4.3 6.7 4.3 4.4 0 7.2-2.5 7.2-4.5.1-1.4-1-2.1-1.9-2.3zm-5.3 5.7c-2.6.3-4.9-.9-5.1-2.7-.2-1.7 1.8-3.4 4.5-3.6 2.6-.3 4.9.9 5.1 2.7.2 1.8-1.8 3.4-4.5 3.6zm.3-4.9c-1.3-.3-2.7.3-3.2 1.4-.6 1.1 0 2.4 1.3 2.8 1.3.4 2.9-.2 3.4-1.5.5-1.2-.2-2.4-1.5-2.7zm-1 2.9c-.3.4-.8.6-1.2.4-.4-.2-.5-.7-.3-1.1.3-.4.8-.6 1.2-.4.4.2.6.7.3 1.1zm.9-1.1c-.1.2-.3.2-.5.2-.2-.1-.2-.2-.1-.4s.3-.2.4-.2c.2 0 .3.2.2.4z"/></svg><svg id="icon-wb-h" width="18" height="18" viewBox="-298 388 18 18" x="117" y="27"><style>.cbst0{fill:#fff}</style><path class="cbst0" d="M-282.1 391.8c-1.1-1.2-2.6-1.6-4-1.3-.3.1-.5.4-.5.7.1.3.4.5.7.5 1-.2 2.1.1 2.9.9.7.8.9 2 .6 3-.1.3.1.7.4.8.3.1.7-.1.8-.4.4-1.4.2-3-.9-4.2zm-1.8 3.8c.3.1.6-.1.7-.3.2-.7.1-1.5-.4-2-.5-.6-1.3-.8-2-.6-.3.1-.5.3-.4.6.1.3.3.5.6.4.3-.1.7 0 1 .3s.3.7.2 1c-.2.2 0 .5.3.6zm-1.1 1.1c-.2-.1-.5-.1-.3-.4.3-.6.4-1.2.1-1.6-.5-.7-1.9-.7-3.6 0 0 0-.5.2-.4-.2.3-.8.2-1.5-.2-1.9-.9-.9-3.2 0-5.2 2.1-1.5 1.5-2.4 3.1-2.4 4.5 0 2.7 3.4 4.3 6.7 4.3 4.4 0 7.2-2.5 7.2-4.5.1-1.4-1-2.1-1.9-2.3zm-5.3 5.7c-2.6.3-4.9-.9-5.1-2.7-.2-1.7 1.8-3.4 4.5-3.6 2.6-.3 4.9.9 5.1 2.7.2 1.8-1.8 3.4-4.5 3.6zm.3-4.9c-1.3-.3-2.7.3-3.2 1.4-.6 1.1 0 2.4 1.3 2.8s2.9-.2 3.4-1.5c.5-1.2-.2-2.4-1.5-2.7zm-1 2.9c-.3.4-.8.6-1.2.4-.4-.2-.5-.7-.3-1.1.3-.4.8-.6 1.2-.4.4.2.6.7.3 1.1zm.9-1.1c-.1.2-.3.2-.5.2-.2-.1-.2-.2-.1-.4s.3-.2.4-.2c.2 0 .3.2.2.4z"/></svg><svg id="icon-wx" width="18" height="18" viewBox="-298 388 18 18" x="72" y="206"><style>.ccst0{fill:#ccc}</style><path class="ccst0" d="M-281 398.8c0-2.3-2.3-4.1-4.8-4.1-2.7 0-4.8 1.8-4.8 4.1s2.1 4.1 4.8 4.1c.6 0 1.1-.1 1.7-.3l1.6.8-.4-1.4c1.1-.8 1.9-1.9 1.9-3.2zm-6.4-.7c-.3 0-.5-.2-.5-.5s.2-.5.5-.5.5.2.5.5c0 .2-.2.5-.5.5zm3.1 0c-.3 0-.5-.2-.5-.5s.2-.5.5-.5.5.2.5.5c0 .2-.2.5-.5.5zm-1.9-3.7h.5c-.5-2.3-2.9-4-5.7-4-3.1 0-5.7 2.1-5.7 4.8 0 1.6.8 2.8 2.3 3.8l-.6 1.7 2-1c.7.1 1.3.3 2 .3h.5c-.1-.4-.2-.8-.2-1.2.1-2.4 2.2-4.4 4.9-4.4zm-3.1-1.5c.4 0 .8.3.8.7s-.3.7-.8.7c-.4 0-.8-.3-.8-.7s.4-.7.8-.7zm-4 1.5c-.4 0-.7-.3-.7-.7s.3-.7.7-.7c.4 0 .8.3.8.7s-.4.7-.8.7z"/></svg><svg id="icon-wx-h" width="18" height="18" viewBox="-298 388 18 18" x="90" y="206"><style>.cdst0{fill:#fff}</style><path class="cdst0" d="M-280.9 398.9c0-2.3-2.3-4.1-4.8-4.1-2.7 0-4.8 1.8-4.8 4.1s2.1 4.1 4.8 4.1c.6 0 1.1-.1 1.7-.3l1.6.8-.4-1.4c1.1-.8 1.9-1.9 1.9-3.2zm-6.4-.7c-.3 0-.5-.2-.5-.5s.2-.5.5-.5.5.2.5.5c0 .2-.2.5-.5.5zm3.1 0c-.3 0-.5-.2-.5-.5s.2-.5.5-.5.5.2.5.5c0 .2-.2.5-.5.5zm-1.9-3.7h.5c-.5-2.3-2.9-4-5.7-4-3.1 0-5.7 2.1-5.7 4.8 0 1.6.8 2.8 2.3 3.8l-.6 1.7 2-1c.7.1 1.3.3 2 .3h.5c-.1-.4-.2-.8-.2-1.2.1-2.4 2.2-4.4 4.9-4.4zm-3.1-1.5c.4 0 .8.3.8.7s-.3.7-.8.7c-.4 0-.8-.3-.8-.7s.4-.7.8-.7zm-4 1.5c-.4 0-.7-.3-.7-.7s.3-.7.7-.7c.4 0 .8.3.8.7s-.4.7-.8.7z"/></svg><svg width="8" height="6" viewBox="-303 394 8 6" id="lang-64-1-inline" x="230" y="216"><path fill="#FFF" d="M-299 397l1.5-2h1.5l-3 4-3-4h1.5l1.5 2z"/></svg><svg width="8" height="6" viewBox="-303 394 8 6" id="lang-64-2-inline" x="238" y="216"><path fill="#00A4FF" d="M-299 397l1.5-2h1.5l-3 4-3-4h1.5l1.5 2z"/></svg><svg width="14" height="14" viewBox="-1 -1 14 14" id="link-1212-#00a4ff" x="248" y="177"><style>.cgst0{fill-rule:evenodd;clip-rule:evenodd;fill:#00a4ff}</style><path class="cgst0" d="M1 11V1h3v1H2v8h8V8h1v3H1zm5.1-4.4l-.7-.7 2.8-2.8L6 1h5v5L8.9 3.9 6.1 6.6z"/></svg><svg id="link-1212-1" viewBox="-1 -1 14 14" width="14" height="14" x="248" y="219"><style>.chst0{fill-rule:evenodd;clip-rule:evenodd;fill:#7d848d}</style><path id="chXMLID_2_" class="chst0" d="M1 11V1h3v1H2v8h8V8h1v3H1zm5.1-4.4l-.7-.7 2.8-2.8L6 1h5v5L8.9 3.9 6.1 6.6z"/></svg><svg id="link-1212-1" viewBox="-1 -1 14 14" width="14" height="14" x="248" y="205"><style>.cist0{fill-rule:evenodd;clip-rule:evenodd;fill:#7d848d}</style><path id="ciXMLID_2_" class="cist0" d="M1 11V1h3v1H2v8h8V8h1v3H1zm5.1-4.4l-.7-.7 2.8-2.8L6 1h5v5L8.9 3.9 6.1 6.6z"/></svg><svg id="link-1212-2" viewBox="-1 -1 14 14" width="14" height="14" x="248" y="191"><style>.cjst0{fill-rule:evenodd;clip-rule:evenodd;fill:#00a4ff}</style><path id="cjXMLID_2_" class="cjst0" d="M1 11V1h3v1H2v8h8V8h1v3H1zm5.1-4.4l-.7-.7 2.8-2.8L6 1h5v5L8.9 3.9 6.1 6.6z"/></svg><svg width="9" height="15" viewBox="-1 -1 9 15" id="link-arrow" x="248" y="162"><title>&amp;gt;</title><path d="M4.228 6.5l-4.242 4.243L1.4 12.158l5.657-5.657-1.414-1.415L1.4.844-.014 2.259 4.228 6.5z" fill="#00A4FF" fill-rule="evenodd"/></svg><svg width="7" height="10" viewBox="-1 -1 7 10" id="link-arrow-#00a4ff" x="257" y="162"><path d="M.714 8L5 4 .714 0 0 .667 3.571 4 0 7.333z" fill="#00a4ff" fill-rule="evenodd"/></svg><svg id="linkedin" viewBox="-1 -1 18 18" width="18" height="18" x="230" y="36"><style>.cmst0{fill-rule:evenodd;clip-rule:evenodd;fill:#fff}</style><path id="cmXMLID_9_" class="cmst0" d="M13 2H3c-.6 0-1 .4-1 1v10c0 .6.4 1 1 1h10c.6 0 1-.4 1-1V3c0-.6-.4-1-1-1zM6 12H4V7h2v5zM5 6c-.6 0-1-.4-1-1s.4-1 1-1 1 .4 1 1-.4 1-1 1zm7 6h-2V9H9v3H7V7h2v1l1-1h2v5z"/></svg><svg id="logo-9225-color" viewBox="-1 -1 94 27" width="94" height="27" y="73"><style>.cnst0{fill:#fff}.cnst1{fill:#00a3ff}.cnst2{fill:#00c8dc}.cnst3{fill:#006eff}</style><g id="cnXMLID_25_"><path id="cnXMLID_38_" class="cnst0" d="M72.8 4.6h-10V6h3v5.3h-3.5v1.5h3.5v8.9h1.6v-8.9h3.8v8.7h3V20h-1.4V4.6zm-5.4 6.7V6h3.8v5.3h-3.8z"/><path id="cnXMLID_14_" class="cnst0" d="M45 17.6h7.9v1.5H45z"/><path id="cnXMLID_33_" class="cnst0" d="M39.6 14.9c0 2.6-.2 4.6-.7 6.4 0 .2 0 .2.1.2h1.5c.5-2.4.5-4.5.6-5.9h2v4.5h-1.4c-.1 0-.1 0-.1.1l.4 1.3h2.6V4.6h-4.9v10.3zm1.5-.6v-3.5h2v3.5h-2zm2-8.2v3.4h-2V6.1h2z"/><path id="cnXMLID_30_" class="cnst0" d="M53.5 10.5h1.9V9.2h-5.7c.2-.4.3-.9.5-1.4h4.9V6.5h-1.4c.2-.8.5-1.8.5-1.8 0-.1 0-.1-.1-.1h-1.2l-.6 1.9h-1.7c.1-.7.2-1.6.4-2.5 0-.1 0-.1-.1-.1h-1.4c-.1 1-.3 1.9-.5 2.7h-.9l-.6-1.9h-1.2c-.1 0-.1 0-.1.1s.3 1 .5 1.8h-1.4v1.3h3.2c-.1.4-.3.9-.5 1.4h-3v1.3h2.3c-.9 1.3-1.9 1.9-2.3 2.2v1.5c0 .1.1.2.3 0 .4-.2.9-.5 1.4-.9H52v2h-4.3l.1-1.2c0-.1 0-.1-.1-.1h-1.4l-.1 2.5c0 .1 0 .1.1.1h7.4v3.5h-3.3c-.1 0-.1 0-.1.1l.4 1.3h4.6v-6.3h-1.8l.1-2.5c.7.6 1.4 1.1 2 1.4.2.1.3.1.3 0v-1.5c-.5-.3-1.5-.9-2.4-2.2zm-1.8 0c.3.6.7 1.1 1.1 1.5H48c.4-.4.7-.9 1.1-1.5h2.6z"/><path id="cnXMLID_8_" class="cnst0" d="M63.8 16.6s-1.4 1-2.7 2V9.2h-3.7v1.6h2.1v9c-.5.4-.9.6-.9.6l.9 1.2 4.4-3.3v-1.6c.1-.1 0-.2-.1-.1z"/><path id="cnXMLID_7_" class="cnst0" d="M59.7 7.7h1.7c.1 0 .1-.1.1-.1l-2.2-3.4h-1.7l-.1.1c.1.1 2.2 3.4 2.2 3.4z"/><path id="cnXMLID_6_" class="cnst0" d="M77.6 5h12.6v1.6H77.6z"/><path id="cnXMLID_5_" class="cnst0" d="M82.2 12.6H92V11H75.8v1.6h4.5c-.9 2.4-3.2 8.5-3.3 8.6 0 .1 0 .1.1.1H91c.1 0 .1-.1.1-.1L89 15.7h-1.7c-.1 0-.1.1-.1.1 0 .1 1.5 3.9 1.5 3.9h-9.2l2.7-7.1z"/></g><g id="cnXMLID_19_"><path id="cnXMLID_22_" class="cnst1" d="M29.5 20.6c-.6.6-1.7 1.3-3.5 1.3H14.3c3.5-3.4 6.5-6.3 6.8-6.6.3-.3 1-1 1.6-1.5 1.3-1.2 2.5-1.4 3.4-1.4 1.3 0 2.5.6 3.4 1.4 1.9 1.9 1.9 4.9 0 6.8m2.3-9c-1.4-1.5-3.4-2.4-5.6-2.4-1.9 0-3.5.7-5 1.8-.6.5-1.3 1.1-2.1 1.9-.5.5-12.3 12-12.3 12 .6.1 1.4.1 2.2.1h14.9c1.1 0 1.9 0 2.7-.1 1.8-.1 3.6-.8 5-2.2 3.2-3 3.2-8 .2-11.1z"/><path id="cnXMLID_2_" class="cnst2" d="M12.6 10.9c-1.4-1-3-1.6-4.7-1.6-2.2 0-4.2.9-5.6 2.4-3 3.1-3 8.1.1 11.2 1.3 1.2 2.8 1.9 4.4 2.1l3.1-3H8.1c-1.8-.1-2.9-.7-3.5-1.3a4.86 4.86 0 0 1-.1-6.8c.9-.9 2.1-1.4 3.4-1.4.8 0 2 .2 3.3 1.3.6.5 2 1.7 2.6 2.2h.1l2.1-2.1v-.1c-1.1-1-2.5-2.3-3.4-2.9"/><path id="cnXMLID_1_" class="cnst3" d="M27 7.5c-1.5-4.1-5.4-7-10-7-5.3 0-9.6 3.9-10.4 8.9.4-.1.8-.2 1.3-.2.6 0 1.2.1 1.8.2.7-3.4 3.7-5.9 7.3-5.9 3 0 5.6 1.8 6.8 4.4 0 0 .1.1.1 0 .9-.2 2-.4 3-.3.1 0 .1-.1.1-.1"/></g></svg><svg id="logo-cn" viewBox="-1 -1 96 27" width="96" height="27" y="46"><style>.cost0{fill:#fff}</style><g id="coXMLID_16_"><g id="coXMLID_20_"><path id="coXMLID_33_" class="cost0" d="M74 4.2H63.8v1.5h3.1v5.4h-3.5v1.5h3.5v9h1.6v-9h3.9v8.8h3.1v-1.5H74V4.2zm-5.5 6.9V5.7h3.9v5.4h-3.9z"/><path id="coXMLID_12_" class="cost0" d="M45.7 17.4h8v1.5h-8z"/><path id="coXMLID_28_" class="cost0" d="M40.2 14.7c0 2.7-.2 4.7-.7 6.5 0 .2 0 .2.1.2h1.5c.5-2.5.6-4.5.6-6h2.1V20h-1.5c-.1 0-.1 0-.1.1l.4 1.3h2.6V4.3h-5v10.4zm1.5-.6v-3.5h2.1v3.5h-2.1zm2.1-8.4v3.5h-2.1V5.7h2.1z"/><path id="coXMLID_25_" class="cost0" d="M54.3 10.2h2V8.9h-5.8c.2-.4.3-.9.5-1.3h4.9V6.2h-1.4c.2-.8.5-1.8.5-1.8 0-.1 0-.1-.1-.1h-1.3l-.6 2h-1.8c.2-.8.3-1.6.4-2.6 0-.1 0-.1-.1-.1h-1.4c-.1 1-.3 1.9-.5 2.7h-.9l-.6-2H47c-.1 0-.1 0-.1.1s.3 1 .5 1.8H46v1.3h3.3c-.1.5-.3 1-.5 1.4h-3.1v1.3H48c-.9 1.3-1.9 2-2.3 2.2v1.5c0 .1.1.2.3 0 .4-.2.9-.5 1.4-.9h5.5v2h-4.3l.1-1.2c0-.1 0-.1-.1-.1h-1.4l-.1 2.5c0 .1 0 .1.1.1h7.5V20h-3.4c-.1 0-.1 0-.1.1l.4 1.3h4.7V15h-1.8l.1-2.6c.7.6 1.4 1.1 2 1.5.2.1.3.1.3 0v-1.5c-.7-.2-1.7-.8-2.6-2.2zm-1.8 0c.4.6.7 1.1 1.1 1.5h-4.8c.4-.4.7-.9 1.1-1.5h2.6z"/><path id="coXMLID_6_" class="cost0" d="M64.8 16.4s-1.4 1.1-2.7 2.1V8.9h-3.8v1.6h2.2v9.2c-.5.4-.9.7-.9.7l.9 1.2 4.5-3.4v-1.7c-.1-.1-.1-.1-.2-.1z"/><path id="coXMLID_5_" class="cost0" d="M60.7 7.5h1.8c.1 0 .1-.1.1-.1L60.4 4h-1.8c-.1 0-.1.1-.1.1l2.2 3.4z"/><path id="coXMLID_4_" class="cost0" d="M78.8 4.6h12.8v1.6H78.8z"/><path id="coXMLID_3_" class="cost0" d="M83.5 12.4h10v-1.6H77v1.6h4.5c-.9 2.5-3.3 8.7-3.3 8.7 0 .1 0 .1.1.1h14.1c.1 0 .1-.1.1-.1l-2.1-5.5h-1.8c-.1 0-.1.1-.1.1 0 .1 1.5 3.9 1.5 3.9h-9.4l2.9-7.2z"/></g><path id="coXMLID_17_" class="cost0" d="M32.2 11.4C30.8 9.9 28.8 9 26.5 9c-1.9 0-3.6.7-5.1 1.9-.6.5-1.3 1.1-2.1 1.9-.3.3-5.8 5.6-9.4 9.1H8c-1.8-.1-2.9-.8-3.5-1.4-1.9-1.9-2-5-.1-6.9.9-.9 2.1-1.4 3.5-1.5.8 0 2 .2 3.3 1.3.6.5 2 1.7 2.6 2.3h.1l2.1-2.1v-.1c-1-.9-2.5-2.2-3.4-2.9-.9-.7-1.9-1.2-3-1.4.7-3.5 3.8-6 7.4-6 3 0 5.7 1.8 6.9 4.4 0 0 .1.1.1 0 .9-.2 2-.4 3-.3.1 0 .1-.1.1-.1C25.9 3 21.9 0 17.3 0 11.9 0 7.5 4 6.7 9.1c-1.7.3-3.3 1.1-4.4 2.3-3.1 3.2-3 8.2.1 11.3 1.3 1.3 2.8 1.9 4.5 2.2.6.1 1.5.1 2.3.1h15.2c1.2 0 1.9 0 2.7-.1 1.9-.1 3.6-.8 5.1-2.2 3.1-3.1 3.1-8.2 0-11.3zm-2.3 9.1c-.6.6-1.7 1.3-3.5 1.4H14.5c3.5-3.4 6.6-6.4 6.9-6.7.3-.3 1-1 1.7-1.6 1.4-1.2 2.6-1.5 3.4-1.5 1.4 0 2.6.6 3.5 1.5 1.9 1.9 1.8 5-.1 6.9z"/></g></svg><svg id="logo-en" viewBox="-1 -1 170 27" width="170" height="27"><style>.cpst0{fill:#fff}</style><path id="cpXMLID_42_" class="cpst0" d="M9.8 9.2c.7-3.5 3.8-6 7.4-6 3 0 5.7 1.8 6.9 4.4 0 0 .1.1.1 0 .9-.2 2-.4 3-.3.1 0 .1-.1.1-.1C25.9 3 21.9 0 17.3 0 11.9 0 7.5 3.9 6.7 9.1c-1.7.3-3.3 1.1-4.4 2.3-3.1 3.2-3.1 8.2.1 11.3 1.3 1.3 2.8 1.9 4.5 2.2.6.1 1.5.1 2.3.1h15.2c1.2 0 1.9 0 2.7-.1 1.9-.1 3.6-.8 5.1-2.2 3.2-3.1 3.2-8.2.1-11.3C30.8 9.9 28.8 9 26.6 9c-1.9 0-3.6.7-5.1 1.9-.6.5-1.3 1.1-2.1 1.9-.3.3-5.8 5.6-9.4 9.1H8.1c-1.8-.1-2.9-.8-3.5-1.4-1.9-1.9-2-5-.1-6.9.9-.9 2.1-1.4 3.5-1.5.8 0 2 .2 3.3 1.3.6.5 2 1.7 2.6 2.3h.1l2.1-2.1v-.1c-1-.9-2.5-2.2-3.4-2.9-.8-.7-1.8-1.2-2.9-1.4zm20.1 11.3c-.6.6-1.7 1.3-3.5 1.4h-12c3.5-3.4 6.6-6.4 6.9-6.7.3-.3 1-1 1.7-1.6 1.4-1.2 2.6-1.5 3.4-1.5 1.4 0 2.6.6 3.5 1.5 2 1.9 2 5 0 6.9z"/><g id="cpXMLID_21_"><path id="cpXMLID_16_" class="cpst0" d="M128.2 16c0-.1-.1-.1-.2-.1-1.2 1.3-2.9 2.4-5.2 2.4-3.3 0-5.5-2.3-5.5-5.9 0-3.6 2-5.9 5.3-5.9 1.9 0 3.9.9 5.1 2.2.1.1.2 0 .2-.1V6.8c-1.3-1.2-3.3-1.9-5.3-1.9-2.1 0-3.8.7-5.1 2.1-1.2 1.4-1.9 3.3-1.9 5.5 0 4.5 2.9 7.6 7.1 7.6 2 0 4-.8 5.4-2V16z"/><path id="cpXMLID_15_" class="cpst0" d="M37.6 5.2v1.6h5v12.8h1.7V6.8h5V5.2z"/><path id="cpXMLID_37_" class="cpst0" d="M166.3 10.2c-.9-1-2.4-1.3-3.5-1.3-1.4 0-2.7.5-3.6 1.5-.9 1-1.4 2.4-1.4 4 0 3.8 2.5 5.6 5.1 5.6 1.5 0 2.7-.5 3.4-1.5v1.2h1.7V5.3h-1.7v4.9zm-.1 4.2c0 2-1.1 4-3.3 4-1.6 0-3.4-1.2-3.4-3.9 0-2 1-4.1 3.3-4.1 2.5 0 3.4 2.2 3.4 4z"/><path id="cpXMLID_12_" class="cpst0" d="M130.4 5.3h1.7v14.4h-1.7z"/><path id="cpXMLID_11_" class="cpst0" d="M80.3 17c0-.1-.1-.1-.2-.1-1.1 1-2.8 1.4-3.5 1.4-2.3 0-3.8-1.5-3.8-3.9s1.5-3.9 3.8-3.9c.7 0 2.3.2 3.5 1.2.1.1.2 0 .2-.1V10c-.7-.4-2.2-1.1-3.7-1.1-3.2 0-5.3 2.2-5.3 5.5s2.1 5.5 5.3 5.5c1.3 0 2.6-.4 3.7-1.1V17z"/><path id="cpXMLID_32_" class="cpst0" d="M57.7 16.7c0-.1-.1-.1-.2-.1-.8 1-2.6 1.8-3.7 1.8s-2.1-.4-2.6-.9c-.7-.7-1-1.6-1-2.6h8.1v-.1c0-2.3-.4-3.6-1.4-4.6-.8-.9-2-1.3-3.4-1.3-3 0-5 2.2-5 5.5.1 3.5 2.1 5.6 5.3 5.6 1.5 0 2.8-.5 4-1.5v-1.8zm-1.1-3.3h-6.4c.1-.9.5-1.7 1.2-2.3.6-.5 1.3-.7 2.1-.7 1.8 0 3 1.1 3.1 3z"/><path id="cpXMLID_8_" class="cpst0" d="M154.1 14.5c0 2.9-1.7 3.9-3.1 3.9-1.4 0-2.8-.9-2.8-2.7V9.1h-1.6v6.5c0 2.5 1.8 4.3 4.4 4.3 1.4 0 2.5-.5 3.3-1.4v1.2h1.6V9.1h-1.7v5.4z"/><path id="cpXMLID_7_" class="cpst0" d="M65 8.9c-1.3 0-2.4.4-3.2 1.2v-1h-1.6v10.6h1.7v-6c0-1 .3-1.8.9-2.4.6-.6 1.3-.9 2.2-.8 1.3 0 2.6.9 2.6 2.7v6.5h1.7v-6.6c0-1.3-.4-2.4-1.2-3.1-.8-.8-1.9-1.1-3.1-1.1z"/><path id="cpXMLID_27_" class="cpst0" d="M91.1 16.7c0-.1-.1-.1-.2-.1-.8 1-2.6 1.8-3.7 1.8s-2.1-.4-2.6-.9c-.7-.7-1-1.6-1-2.6h8.1v-.1c0-2.3-.4-3.6-1.4-4.6-.8-.9-2-1.3-3.4-1.3-3 0-5 2.2-5 5.5.1 3.5 2.1 5.6 5.3 5.6 1.5 0 2.8-.5 4-1.5v-1.8zM90 13.4h-6.4c.1-.9.5-1.7 1.2-2.3.6-.5 1.3-.7 2.1-.7 1.8 0 3 1.1 3.1 3z"/><path id="cpXMLID_4_" class="cpst0" d="M98.3 8.9c-1.3 0-2.4.4-3.2 1.2v-1h-1.6v10.6h1.7v-6c0-1 .3-1.8.9-2.4.6-.6 1.3-.9 2.2-.8 1.3 0 2.6.9 2.6 2.7v6.5h1.7v-6.6c0-1.3-.4-2.4-1.2-3.1-.8-.8-1.8-1.1-3.1-1.1z"/><path id="cpXMLID_3_" class="cpst0" d="M108 19.8c1-.1 2.2-.5 2.2-.5v-1.6c0-.1-.1-.1-.1-.1-.4.1-1.3.4-1.8.5-.2 0-.3.1-.4 0-.1-.1-.1-.2-.1-.3v-7.1h3V9.1h-3V6.3H106v2.8h-1.7v1.5h1.7v7.3c0 .6.2 1.1.6 1.4.3.3.8.5 1.4.5z"/><path id="cpXMLID_22_" class="cpst0" d="M139.6 8.9c-3.1 0-5.1 2.2-5.1 5.5s2.1 5.5 5.1 5.5c3.1 0 5.1-2.2 5.1-5.5s-2.1-5.5-5.1-5.5zm-3.6 5.5c0-2.3 1.4-3.9 3.5-3.9s3.5 1.6 3.5 3.9-1.4 3.9-3.5 3.9c-2 0-3.5-1.6-3.5-3.9z"/></g></svg><svg id="logo-en" viewBox="-1 -1 117 19" width="117" height="19" y="27"><style>.cqst0{fill:#fff}</style><g id="cqXMLID_20_"><path id="cqXMLID_42_" class="cqst0" d="M6.7 6.2c.5-2.4 2.6-4.1 5.1-4.1 2.1 0 3.9 1.2 4.7 3h.1c.5-.1 1.2-.2 2-.1.1 0 .1 0 .1-.1C17.6 2 14.9 0 11.7 0 8.1 0 5.1 2.7 4.5 6.2c-1.2.2-2.2.8-3 1.6-2.1 2.2-2.1 5.6.1 7.7.9.9 1.9 1.3 3 1.5h13.8c1.3-.1 2.5-.6 3.4-1.5 2.2-2.1 2.2-5.6.1-7.7-1-1-2.4-1.6-3.9-1.6-1.3 0-2.5.5-3.4 1.3-.4.4-.9.8-1.5 1.3-.2.2-3.9 3.8-6.4 6.2H5.4c-1.2 0-2-.5-2.4-.9-1.3-1.3-1.3-3.4-.1-4.7.6-.6 1.4-1 2.4-1 .6 0 1.4.2 2.2.9.4.4 1.4 1.2 1.8 1.5h.1L11 9.3v-.1c-.7-.6-1.7-1.5-2.3-2-.6-.4-1.3-.8-2-1zm13.7 7.7c-.4.4-1.2.9-2.4.9H9.9c2.4-2.3 4.5-4.4 4.7-4.6l1.1-1.1c.9-.8 1.8-1 2.3-1 .9 0 1.8.4 2.4 1 1.3 1.4 1.3 3.5 0 4.8z"/><g id="cqXMLID_21_"><path id="cqXMLID_16_" class="cqst0" d="M87.6 10.9c0-.1-.1-.1-.1 0-.8.9-2 1.6-3.5 1.6-2.3 0-3.7-1.6-3.7-4 0-2.5 1.4-4 3.6-4 1.3 0 2.7.6 3.5 1.5h.1V4.6c-.9-.8-2.2-1.3-3.6-1.3s-2.6.5-3.5 1.4c-.8.9-1.3 2.2-1.3 3.7 0 3.1 1.9 5.2 4.8 5.2 1.4 0 2.7-.5 3.6-1.4v-1.3z"/><path id="cqXMLID_15_" class="cqst0" d="M26.1 3.6v1h3.4v8.8h1.1V4.6H34v-1z"/><path id="cqXMLID_37_" class="cqst0" d="M113.6 6.9c-.6-.7-1.6-.9-2.3-.9-1 0-1.8.4-2.5 1-.6.7-1 1.6-1 2.7 0 2.6 1.7 3.8 3.5 3.8 1 0 1.8-.4 2.3-1v.8h1.2V3.6h-1.2v3.3zm-.1 2.9c0 1.3-.8 2.7-2.3 2.7-1.1 0-2.3-.8-2.3-2.6 0-1.3.7-2.8 2.2-2.8 1.8 0 2.4 1.4 2.4 2.7z"/><path id="cqXMLID_12_" class="cqst0" d="M89.2 3.6h1.2v9.8h-1.2z"/><path id="cqXMLID_11_" class="cqst0" d="M55.1 11.6c0-.1-.1-.1-.1-.1-.8.7-1.9 1-2.4 1-1.6 0-2.6-1.1-2.6-2.7s1-2.7 2.6-2.7c.5 0 1.6.1 2.4.8 0 0 .1 0 .1-.1v-1c-.5-.3-1.5-.8-2.6-.8-2.2 0-3.6 1.5-3.6 3.8s1.5 3.8 3.6 3.8c.9 0 1.8-.2 2.5-.8v-1.2z"/><path id="cqXMLID_32_" class="cqst0" d="M39.7 11.3c0-.1-.1-.1-.1 0-.5.7-1.8 1.2-2.5 1.2s-1.4-.2-1.8-.6c-.5-.5-.7-1.1-.7-1.8h5.5V10c0-1.5-.3-2.4-.9-3.1-.6-.6-1.4-.9-2.4-.9-2 0-3.4 1.5-3.4 3.7.1 2.4 1.4 3.8 3.6 3.8 1 0 1.9-.3 2.7-1v-1.2zM39 9.1h-4.4c0-.6.3-1.2.8-1.6.4-.3.9-.5 1.4-.5 1.3 0 2.1.8 2.2 2.1z"/><path id="cqXMLID_8_" class="cqst0" d="M105.3 9.8c0 2-1.1 2.6-2.1 2.6-.9 0-1.9-.6-1.9-1.8V6.2h-1.1v4.4c0 1.7 1.2 2.9 3 2.9 1 0 1.7-.3 2.2-1v.8h1.1V6.2h-1.1v3.6z"/><path id="cqXMLID_7_" class="cqst0" d="M44.7 6c-.9 0-1.7.3-2.2.8v-.6h-1.1v7.2h1.1V9.3c0-.7.2-1.3.6-1.6.4-.4.9-.6 1.5-.6.9 0 1.8.6 1.8 1.9v4.4h1.1V8.9c0-.9-.3-1.6-.8-2.1s-1.2-.8-2-.8z"/><path id="cqXMLID_27_" class="cqst0" d="M62.4 11.3c0-.1-.1-.1-.1 0-.5.7-1.8 1.2-2.5 1.2s-1.4-.2-1.8-.6c-.5-.5-.7-1.1-.7-1.8h5.5V10c0-1.5-.3-2.4-.9-3.1-.6-.6-1.4-.9-2.4-.9-2 0-3.4 1.5-3.4 3.7.1 2.4 1.4 3.8 3.6 3.8 1 0 1.9-.3 2.7-1v-1.2zm-.7-2.2h-4.4c0-.6.3-1.2.8-1.6.4-.3.9-.5 1.4-.5 1.3 0 2.1.8 2.2 2.1z"/><path id="cqXMLID_4_" class="cqst0" d="M67.4 6c-.9 0-1.7.3-2.2.8v-.6h-1.1v7.2h1.1V9.3c0-.7.2-1.3.6-1.6.4-.4.9-.6 1.5-.6.9 0 1.8.6 1.8 1.9v4.4h1.1V8.9c0-.9-.3-1.6-.8-2.1s-1.2-.8-2-.8z"/><path id="cqXMLID_3_" class="cqst0" d="M73.9 13.5c.7 0 1.5-.3 1.5-.3v-1.1s0-.1-.1-.1c-.3.1-.9.3-1.2.3h-.3c-.1 0-.1-.1-.1-.2V7.2h2.1v-1h-2.1V4.3h-1.2v1.9h-1.2v1h1.2v4.9c0 .4.1.8.4 1 .3.3.6.4 1 .4z"/><path id="cqXMLID_22_" class="cqst0" d="M95.4 6c-2.1 0-3.5 1.5-3.5 3.8s1.4 3.8 3.5 3.8 3.5-1.5 3.5-3.8S97.5 6 95.4 6zM93 9.8c0-1.6 1-2.7 2.4-2.7s2.4 1.1 2.4 2.7-1 2.7-2.4 2.7S93 11.4 93 9.8z"/></g></g></svg><svg id="nav-2218" viewBox="-1 -1 24 20" width="24" height="20" x="204" y="104"><style>.crst0{fill-rule:evenodd;clip-rule:evenodd;fill:#fff}</style><g id="crXMLID_2_"><g id="crXMLID_42_"><path id="crXMLID_43_" class="crst0" d="M0 0v2h22V0H0zm0 10h22V8H0v2zm0 8h22v-2H0v2z"/></g></g></svg><svg id="nav-2218-actived" viewBox="-1 -1 24 20" width="24" height="20" x="204" y="124"><style>.csst0{fill-rule:evenodd;clip-rule:evenodd;fill:#00a4ff}</style><g id="csXMLID_2_"><g id="csXMLID_46_"><path id="csXMLID_47_" class="csst0" d="M0 0v2h22V0H0zm0 10h22V8H0v2zm0 8h22v-2H0v2z"/></g></g></svg><svg width="34" height="34" viewBox="-290 380 34 34" id="nav-3232-actived-inline" x="170" y="102"><path fill="#00A4FF" d="M-285.5 390h25c.8 0 1.5-.7 1.5-1.5s-.7-1.5-1.5-1.5h-25c-.8 0-1.5.7-1.5 1.5s.7 1.5 1.5 1.5zm25 6h-25c-.8 0-1.5.7-1.5 1.5s.7 1.5 1.5 1.5h25c.8 0 1.5-.7 1.5-1.5s-.7-1.5-1.5-1.5zm0 9h-25c-.8 0-1.5.7-1.5 1.5s.7 1.5 1.5 1.5h25c.8 0 1.5-.7 1.5-1.5s-.7-1.5-1.5-1.5z"/></svg><svg width="34" height="34" viewBox="-290 380 34 34" id="nav-3232-inline" x="170" y="68"><path fill="#FFF" d="M-285.5 390h25c.8 0 1.5-.7 1.5-1.5s-.7-1.5-1.5-1.5h-25c-.8 0-1.5.7-1.5 1.5s.7 1.5 1.5 1.5zm25 6h-25c-.8 0-1.5.7-1.5 1.5s.7 1.5 1.5 1.5h25c.8 0 1.5-.7 1.5-1.5s-.7-1.5-1.5-1.5zm0 9h-25c-.8 0-1.5.7-1.5 1.5s.7 1.5 1.5 1.5h25c.8 0 1.5-.7 1.5-1.5s-.7-1.5-1.5-1.5z"/></svg><svg id="pc-l-arrow" width="18" height="18" viewBox="-1 -1 18 18" x="230" y="198"><style>.cvst0{fill-rule:evenodd;clip-rule:evenodd;fill:#666}</style><path id="cvXMLID_2_" class="cvst0" d="M6.2 8.7L9.8 12l.7-.7L6.9 8l3.6-3.3-.7-.7-3.6 3.3-.7.7.7.7z"/></svg><svg id="pc-l-arrow-hover" width="18" height="18" viewBox="-1 -1 18 18" y="224"><style>.cwst0{fill-rule:evenodd;clip-rule:evenodd;fill:#2b2b2b}</style><path id="cwXMLID_2_" class="cwst0" d="M6.2 8.7L9.8 12l.7-.7L6.9 8l3.6-3.3-.7-.7-3.6 3.3-.7.7.7.7z"/></svg><svg id="pc-r-arrow" width="18" height="18" viewBox="-1 -1 18 18" x="18" y="224"><style>.cxst0{fill-rule:evenodd;clip-rule:evenodd;fill:#666}</style><path id="cxXMLID_5_" class="cxst0" d="M9.8 7.3L6.2 3.8l-.7.7L9.1 8l-3.6 3.5.7.7 3.6-3.5.7-.7z"/></svg><svg id="pc-r-arrow-hover" width="18" height="18" viewBox="-1 -1 18 18" x="36" y="224"><style>.cyst0{fill-rule:evenodd;clip-rule:evenodd;fill:#2a2b2b}</style><path id="cyXMLID_5_" class="cyst0" d="M9.8 7.3L6.2 3.8l-.7.7L9.1 8l-3.6 3.5.7.7 3.6-3.5.7-.7z"/></svg><svg id="phone" width="20" height="20" viewBox="-1 -1 20 20" x="204" y="144"><style>.czst0{fill:#666}</style><g id="czXMLID_51_"><path id="czXMLID_52_" class="czst0" d="M12 7h2c0-1.7-1.3-3-3-3v2c.5 0 1 .5 1 1zm4 0h2c0-3.9-3.1-7-7-7v2c2.8 0 5 2.2 5 5zm1 3h-5l-1 1c-.1.1-.3.2-.4.2C9.2 11.2 6.1 7.9 7 7l1-1V1c0-.6-.4-1-1-1H1C.5 0 0 .5 0 1c.3 11.9 5.1 16.7 17 17 .6 0 1-.4 1-1v-6c0-.5-.5-1-1-1zm-1 6C6.2 15.5 2.5 11.8 2 2h4v3.5L4.7 7c0 .2.1 1 .4 1.8 1 2.5 4.4 4.3 5.9 4.4l1.5-1.2H16v4z"/></g></svg><svg id="phone-1616" data-name="图层 1" width="18" height="18" viewBox="-1 -1 18 18" x="72" y="224"><defs><style>.dacls-1{fill:#7d848d}</style></defs><title>2</title><path id="dacgXMLID" class="dacls-1" d="M3.06 2a16 16 0 0 1 1.63 2.4A2.53 2.53 0 0 0 4.15 6c0 1.75 3.51 5.35 5.21 5.35h.18a4.8 4.8 0 0 0 1.32-.27l.32-.1A18.59 18.59 0 0 1 14.13 13a2.42 2.42 0 0 1-1.43 1.21c-4 0-11-7.49-11-10.82A3.65 3.65 0 0 1 3.06 2m.24-2C2.4 0 0 1.9 0 3.4 0 7.8 7.8 16 12.7 16a3.83 3.83 0 0 0 3.3-3.4c0-.6-3.8-3.3-4.6-3.4s-1.3.4-2 .4c-.79 0-3.5-2.81-3.5-3.6s.7-.6.7-1.5C6.6 3.9 4.2 0 3.3 0z"/></svg><svg data-name="图层 1" width="18" height="18" viewBox="-1 -1 18 18" id="r" x="90" y="224"><title>单-常态</title><circle cx="8" cy="8" r="7.5" fill="#fff"/><path d="M8 1a7 7 0 1 1-7 7 7 7 0 0 1 7-7m0-1a8 8 0 1 0 8 8 8 8 0 0 0-8-8z" fill="#ddd"/></svg><svg data-name="图层 1" width="18" height="18" viewBox="-1 -1 18 18" id="r-c" x="108" y="224"><title>单-选中</title><circle cx="8" cy="8" r="7.5" fill="#fff"/><path d="M8 .98a7 7 0 1 1-7 7 7 7 0 0 1 7-7m0-1a8 8 0 1 0 8 8 8 8 0 0 0-8-8z" fill="#ddd"/><circle cx="8" cy="8" r="4" fill="#00a4ff"/></svg><svg data-name="图层 1" width="18" height="18" viewBox="-1 -1 18 18" id="r-d" x="126" y="224"><title>单-不可点</title><circle cx="8" cy="8" r="7.5" fill="#f7f8fa"/><path d="M8 1a7 7 0 0 1 7 7 7 7 0 0 1-7 7 7 7 0 0 1-7-7 7 7 0 0 1 7-7m0-1a8 8 0 1 0 8 8 8 8 0 0 0-8-8z" fill="#ddd"/></svg><svg data-name="图层 1" width="18" height="18" viewBox="-1 -1 18 18" id="r-d-c" x="144" y="224"><title>单-不可点02</title><circle cx="8" cy="8" r="7.5" fill="#f7f8fa"/><path d="M8 1a7 7 0 1 1-7 7 7 7 0 0 1 7-7m0-1a8 8 0 1 0 8 8 8 8 0 0 0-8-8z" fill="#ddd"/><circle cx="8" cy="8" r="4" fill="#ddd"/></svg><svg id="research" width="20" height="20" viewBox="-1 -1 20 20" x="40" y="186"><style>.dfst0{fill:#666}</style><g id="dfXMLID_55_"><path id="dfXMLID_56_" class="dfst0" d="M14 12H4v2h10v-2zM0 0v18h18V0H0zm16 16H2V2h14v14zm-7-6h5V8h-3l-2 2zM7.5 9l.7-.7L11 5.5 9.7 4 6.8 6.8 5.4 5.4 4 6.8l2.8 2.8.7-.6z"/></g></svg><svg width="26" height="26" viewBox="-1 -1 26 26" id="right" x="204" y="52"><title>对勾</title><g fill="none" fill-rule="evenodd"><path d="M0 0h24v24H0z"/><path fill="#00A4FF" fill-rule="nonzero" d="M9 16.2L4.8 12l-1.4 1.4L9 19 21 7l-1.4-1.4z"/></g></svg><svg id="s-logo" width="67" height="20" viewBox="-1 -1 67 20" x="96" y="46"><style>.dhst0{fill:#fff}</style><g id="dhXMLID_2_"><g id="dhXMLID_6_"><path id="dhXMLID_19_" class="dhst0" d="M51.5 3.2h-7.1v1h2.1V8h-2.4v1h2.4v6.3h1.1V9h2.7v6.1h2.1v-1h-1V3.2zM47.6 8V4.2h2.7V8h-2.7z"/><path id="dhXMLID_18_" class="dhst0" d="M31.8 12.4h5.6v1h-5.6z"/><path id="dhXMLID_14_" class="dhst0" d="M28 10.5c0 1.9-.2 3.3-.5 4.5 0 .1 0 .1.1.1h1c.4-1.6.4-3.1.4-4.1h1.4v3.2h-1s-.1 0-.1.1l.3.9h1.8v-12H28v7.3zm1-.4V7.6h1.4v2.5H29zm1.4-5.9v2.4H29V4.2h1.4z"/><path id="dhXMLID_11_" class="dhst0" d="M37.8 7.4h1.4v-.9h-4c.1-.3.2-.6.3-1h3.4v-.9h-1c.2-.6.4-1.2.4-1.3 0-.1 0-.1-.1-.1h-.9l-.4 1.4h-1.2c.1-.6.2-1.1.3-1.8 0-.1 0-.1-.1-.1h-1c-.1.7-.2 1.3-.3 1.9H34l-.4-1.4h-.9s-.1 0-.1.1c0 0 .2.7.4 1.3h-1v.9h2.3c-.1.3-.2.6-.4 1h-2.2v.9h1.6c-.7.9-1.4 1.4-1.6 1.5V10c0 .1 0 .1.2 0 .3-.2.6-.4 1-.6h3.8v1.4h-3V10s0-.1-.1-.1h-1l-.1 1.7s0 .1.1.1h5.2v2.5h-2.3s-.1 0-.1.1l.3.9H39v-4.4h-1.3V9c.5.4 1 .8 1.4 1 .2.1.2 0 .2 0V8.9c-.2-.2-.9-.6-1.5-1.5zm-1.3 0c.2.4.5.8.8 1.1H34c.3-.3.5-.7.7-1.1h1.8z"/><path id="dhXMLID_10_" class="dhst0" d="M45.1 11.7s-1 .7-1.9 1.4V6.5h-2.6v1.1h1.5V14c-.4.3-.6.5-.6.5l.6.8 3.1-2.4v-1.2s-.1-.1-.1 0z"/><path id="dhXMLID_9_" class="dhst0" d="M42.2 5.4h1.2c.1 0 .1-.1.1-.1l-1.6-2.4h-1.2s-.1.1 0 .2l1.5 2.3z"/><path id="dhXMLID_8_" class="dhst0" d="M54.8 3.5h8.9v1.1h-8.9z"/><path id="dhXMLID_7_" class="dhst0" d="M58.1 8.9H65V7.7H53.6v1.1h3.2c-.7 1.7-2.3 6-2.3 6.1 0 0 0 .1.1.1h9.8s.1 0 .1-.1L63 11h-1.2s-.1 0-.1.1l1 2.7h-6.5l1.9-4.9z"/></g><path id="dhXMLID_3_" class="dhst0" d="M22.4 8.2c-1-1-2.4-1.7-4-1.7-1.3 0-2.5.5-3.5 1.3-.4.4-.9.8-1.5 1.4-.2.2-4 3.9-6.5 6.3H5.6c-1.3 0-2-.5-2.4-.9-1.3-1.4-1.4-3.6 0-4.9.6-.6 1.5-1 2.4-1 .6 0 1.4.2 2.3.9.4.4 1.4 1.2 1.8 1.6h.1l1.5-1.5v-.1C10.6 9 9.6 8 9 7.6c-.6-.5-1.3-.8-2.1-1 .4-2.4 2.6-4.2 5.1-4.2 2.1 0 4 1.3 4.8 3.1h.1c.6-.2 1.4-.3 2.1-.2.1 0 .1 0 .1-.1-1-2.9-3.8-5-7-5C8.3.3 5.2 3 4.6 6.6c-1.2.2-2.2.8-3 1.6-2.2 2.2-2.1 5.7.1 7.9.9.9 2 1.3 3.1 1.5.4.1 1 .1 1.6.1h12.4c1.3-.1 2.5-.6 3.5-1.5 2.3-2.3 2.3-5.8.1-8zm-1.6 6.3c-.4.4-1.2.9-2.4.9h-8.3c2.4-2.4 4.6-4.5 4.8-4.7.2-.2.7-.7 1.2-1.1.9-.9 1.8-1 2.4-1 .9 0 1.8.4 2.4 1 1.3 1.4 1.3 3.6-.1 4.9z"/></g></svg><svg id="search" viewBox="-1 -1 18 18" width="18" height="18" x="216" y="224"><style>.dist0{fill:#fff}</style><g id="diXMLID_2_"><g id="diXMLID_36_"><path id="diXMLID_37_" class="dist0" d="M14.8 13.4l-2.5-2.5C13.4 9.7 14 8.2 14 6.5 14 2.9 11.1 0 7.5 0S1 2.9 1 6.5 3.9 13 7.5 13c1.2 0 2.3-.3 3.2-.9l2.7 2.7c.4.4 1 .4 1.4 0 .4-.4.4-1 0-1.4zM3 6.5C3 4 5 2 7.5 2S12 4 12 6.5 10 11 7.5 11 3 9 3 6.5z"/></g></g></svg><svg id="search-1" viewBox="-1 -1 18 18" width="18" height="18" x="248"><style>.djst0{fill-rule:evenodd;clip-rule:evenodd;fill:#006fff}</style><g id="djXMLID_2_"><g id="djXMLID_36_"><path id="djXMLID_37_" class="djst0" d="M14.8 13.4l-2.5-2.5C13.4 9.7 14 8.2 14 6.5 14 2.9 11.1 0 7.5 0S1 2.9 1 6.5 3.9 13 7.5 13c1.2 0 2.3-.3 3.2-.9l2.7 2.7c.4.4 1 .4 1.4 0 .4-.4.4-1 0-1.4zM3 6.5C3 4 5 2 7.5 2S12 4 12 6.5 10 11 7.5 11 3 9 3 6.5z"/></g></g></svg><svg width="18" height="18" viewBox="-298 388 18 18" id="search-1616-1-inline" x="248" y="18"><path fill="#FFF" d="M-282.3 403.3l-2.5-2.5c1-1.1 1.7-2.7 1.7-4.3 0-3.6-2.9-6.5-6.5-6.5-3.5 0-6.4 2.9-6.4 6.5s2.9 6.4 6.4 6.4c1.2 0 2.3-.3 3.2-.9l2.7 2.7c.4.4 1 .4 1.4 0 .4-.4.4-1 0-1.4zm-7.3-2.4c-2.4 0-4.4-2-4.4-4.4s2-4.5 4.4-4.5c2.5 0 4.5 2 4.5 4.5s-2 4.4-4.5 4.4z"/></svg><svg width="18" height="18" viewBox="-298 388 18 18" id="search-1616-1-inline-#00a4ff" x="248" y="36"><path fill="#00a4ff" d="M-282.3 403.3l-2.5-2.5c1-1.1 1.7-2.7 1.7-4.3 0-3.6-2.9-6.5-6.5-6.5-3.5 0-6.4 2.9-6.4 6.5s2.9 6.4 6.4 6.4c1.2 0 2.3-.3 3.2-.9l2.7 2.7c.4.4 1 .4 1.4 0 .4-.4.4-1 0-1.4zm-7.3-2.4c-2.4 0-4.4-2-4.4-4.4s2-4.5 4.4-4.5c2.5 0 4.5 2 4.5 4.5s-2 4.4-4.5 4.4z"/></svg><svg width="18" height="18" viewBox="-298 388 18 18" id="search-1616-1-inline-#aaa" x="248" y="54"><path fill="#aaa" d="M-282.3 403.3l-2.5-2.5c1-1.1 1.7-2.7 1.7-4.3 0-3.6-2.9-6.5-6.5-6.5-3.5 0-6.4 2.9-6.4 6.5s2.9 6.4 6.4 6.4c1.2 0 2.3-.3 3.2-.9l2.7 2.7c.4.4 1 .4 1.4 0 .4-.4.4-1 0-1.4zm-7.3-2.4c-2.4 0-4.4-2-4.4-4.4s2-4.5 4.4-4.5c2.5 0 4.5 2 4.5 4.5s-2 4.4-4.5 4.4z"/></svg><svg width="18" height="18" viewBox="-298 388 18 18" id="search-1616-2-inline" x="248" y="72"><path fill="#00A4FF" d="M-282.3 403.3l-2.5-2.5c1-1.1 1.7-2.7 1.7-4.3 0-3.6-2.9-6.5-6.5-6.5-3.5 0-6.4 2.9-6.4 6.5s2.9 6.4 6.4 6.4c1.2 0 2.3-.3 3.2-.9l2.7 2.7c.4.4 1 .4 1.4 0 .4-.4.4-1 0-1.4zm-7.3-2.4c-2.4 0-4.4-2-4.4-4.4s2-4.5 4.4-4.5c2.5 0 4.5 2 4.5 4.5s-2 4.4-4.5 4.4z"/></svg><svg width="20" height="20" viewBox="-1 -1 20 20" id="service" y="186"><title>Group 17 Copy</title><g transform="translate(0 1)" stroke="#666" stroke-width="1.5" fill="none" fill-rule="evenodd"><path d="M3.071 6C3.575 2 5.551 0 9 0c3.45 0 5.43 2 5.942 6M10.8 15c2.732 0 4.049-1.998 3.951-5.994"/><rect x="7.75" y="14.25" width="3.5" height="1.5" rx=".75"/><path d="M3.25 12.25v-6.5H2C1.31 5.75.75 6.31.75 7v4c0 .69.56 1.25 1.25 1.25h1.25zm11.5 0v-6.5H16c.69 0 1.25.56 1.25 1.25v4c0 .69-.56 1.25-1.25 1.25h-1.25z"/></g></svg><svg id="shopping" width="20" height="20" viewBox="-1 -1 20 20" x="20" y="186"><style>.dpst0{fill-rule:evenodd;clip-rule:evenodd;fill:#666}</style><path class="dpst0" d="M0 18V0h18v18H0zM16 2H2v2h14V2zm0 4H2v10h14V6zm-7 5c1.7 0 3-1.3 3-3h2c0 2.8-2.2 5-5 5s-5-2.2-5-5h2c0 1.7 1.3 3 3 3z"/></svg><svg width="26" height="26" viewBox="-1 -1 26 26" id="sousuo" x="204" y="78"><linearGradient id="dqa" gradientUnits="userSpaceOnUse" x1="5.13" y1="4.569" x2="21.377" y2="20.817"><stop offset="0" stop-color="#fff"/><stop offset="1" stop-color="#fff"/></linearGradient><path fill-rule="evenodd" clip-rule="evenodd" fill="url(#dqa)" d="M21.5 20.6l-3.6-3.4c1.6-1.6 2.6-3.8 2.6-6.3 0-5-4-9-9-9s-9 4-9 9 4 9 9 9c1.8 0 3.5-.5 4.9-1.4l3.8 3.6 1.3-1.5zM11.4 18c-3.9 0-7-3.1-7-7s3.1-7 7-7 7 3.1 7 7c.1 3.9-3.1 7-7 7z"/></svg><svg id="status1" width="34" height="34" viewBox="-1 -1 34 34" y="152"><style>.drst0{fill:#0abf5b}</style><path class="drst0" d="M16 0C7.2 0 0 7.2 0 16s7.2 16 16 16 16-7.2 16-16S24.8 0 16 0zm0 30C8.3 30 2 23.7 2 16S8.3 2 16 2s14 6.3 14 14-6.3 14-14 14z"/><path class="drst0" d="M14.7 19.2l-4.3-4.3L9 16.3l5.7 5.7 9.1-9.2-1.4-1.4z"/></svg><svg id="status2" width="34" height="34" viewBox="-1 -1 34 34" x="136" y="152"><style>.dsst0{fill:#e54545}</style><path id="dsXMLID_11_" class="dsst0" d="M16 0C7.2 0 0 7.2 0 16s7.2 16 16 16 16-7.2 16-16S24.8 0 16 0zm0 30C8.3 30 2 23.7 2 16S8.3 2 16 2s14 6.3 14 14-6.3 14-14 14z"/><path id="dsXMLID_1_" class="dsst0" d="M15 9h2v10h-2z"/><path id="dsXMLID_7_" class="dsst0" d="M15 21h2v2h-2z"/></svg><svg id="status3" width="34" height="34" viewBox="-1 -1 34 34" y="118"><style>.dtst0{fill:#00a4ff}</style><g id="dtXMLID_2_"><path id="dtXMLID_6_" class="dtst0" d="M16 0C7.2 0 0 7.2 0 16s7.2 16 16 16 16-7.2 16-16S24.8 0 16 0zm0 30C8.3 30 2 23.7 2 16S8.3 2 16 2s14 6.3 14 14-6.3 14-14 14z"/><path id="dtXMLID_10_" class="dtst0" d="M16 8h-2v10h10v-2h-8z"/></g></svg><svg id="time-1616" viewBox="-1 -1 18 18" width="18" height="18" x="198" y="206"><style>.dust0{fill-rule:evenodd;clip-rule:evenodd;fill:#999}</style><path id="duXMLID_2_" class="dust0" d="M8 2C4.7 2 2 4.7 2 8s2.7 6 6 6 6-2.7 6-6-2.7-6-6-6zm0-2c4.4 0 8 3.6 8 8s-3.6 8-8 8-8-3.6-8-8 3.6-8 8-8zm1 7.6l1.7 1c.5.3.6.9.4 1.4-.3.5-.9.6-1.4.4L7 8.7V5c0-.6.4-1 1-1s1 .4 1 1v2.6z"/></svg><svg id="triangle-down" width="18" height="18" viewBox="-1 -1 18 18" x="180" y="206"><style>.dvst0{fill:#7f7f7f}</style><path class="dvst0" d="M8 11L3 5h10l-5 6z"/></svg><svg id="triangle-up" width="18" height="18" viewBox="-1 -1 18 18" x="162" y="206"><style>.dwst0{fill:#7f7f7f}</style><path class="dwst0" d="M13 11H3l5-6 5 6z"/></svg><svg width="26" height="26" viewBox="-294 384 26 26" id="user-2424-1-inline" x="204" y="26"><path fill="#FFF" d="M-281 385c-6.6 0-12 5.4-12 12s5.4 12 12 12 12-5.4 12-12-5.4-12-12-12zm0 1.6c5.7 0 10.4 4.7 10.4 10.4 0 2.1-.6 4-1.7 5.6-1.1-2.4-3.2-4.3-5.7-5.1 1.1-.9 1.8-2.2 1.8-3.7 0-2.7-2.1-4.8-4.8-4.8s-4.8 2.1-4.8 4.8c0 1.5.7 2.8 1.8 3.7-2.5.8-4.6 2.7-5.7 5.1-1.1-1.6-1.7-3.5-1.7-5.6 0-5.7 4.7-10.4 10.4-10.4zm0 10.4c-1.8 0-3.2-1.4-3.2-3.2 0-1.8 1.4-3.2 3.2-3.2s3.2 1.4 3.2 3.2c0 1.8-1.4 3.2-3.2 3.2zm0 10.4c-3 0-5.7-1.3-7.6-3.3 1-3.2 4-5.5 7.6-5.5 3.5 0 6.5 2.3 7.6 5.5-1.9 2-4.6 3.3-7.6 3.3z"/></svg><svg width="26" height="26" viewBox="-294 384 26 26" id="user-2424-2-inline" x="94" y="73"><path fill="#00A4FF" d="M-281 385c-6.6 0-12 5.4-12 12s5.4 12 12 12 12-5.4 12-12-5.4-12-12-12zm0 1.6c5.7 0 10.4 4.7 10.4 10.4 0 2.1-.6 4-1.7 5.6-1.1-2.4-3.2-4.3-5.7-5.1 1.1-.9 1.8-2.2 1.8-3.7 0-2.7-2.1-4.8-4.8-4.8s-4.8 2.1-4.8 4.8c0 1.5.7 2.8 1.8 3.7-2.5.8-4.6 2.7-5.7 5.1-1.1-1.6-1.7-3.5-1.7-5.6 0-5.7 4.7-10.4 10.4-10.4zm0 10.4c-1.8 0-3.2-1.4-3.2-3.2 0-1.8 1.4-3.2 3.2-3.2s3.2 1.4 3.2 3.2c0 1.8-1.4 3.2-3.2 3.2zm0 10.4c-3 0-5.7-1.3-7.6-3.3 1-3.2 4-5.5 7.6-5.5 3.5 0 6.5 2.3 7.6 5.5-1.9 2-4.6 3.3-7.6 3.3z"/></svg><svg id="v-1616" viewBox="-1 -1 18 18" width="18" height="18" x="108" y="206"><style>.dzst0{fill-rule:evenodd;clip-rule:evenodd;fill:#999}</style><path id="dzXMLID_2_" class="dzst0" d="M2 2v12h12V2H2zm4 3l5 3-5 3V5zM1 0h14c.6 0 1 .4 1 1v14c0 .6-.4 1-1 1H1c-.6 0-1-.4-1-1V1c0-.6.4-1 1-1z"/></svg><svg id="wechat" viewBox="-1 -1 18 18" width="18" height="18" x="162" y="224"><style>.east0{fill-rule:evenodd;clip-rule:evenodd;fill:#fff}</style><g id="eaXMLID_2_"><g id="eaXMLID_50_"><path id="eaXMLID_51_" class="east0" d="M5.7 1C2.5 1 0 3.1 0 5.8c0 1.6.8 2.8 2.3 3.8l-.6 1.7 2-1c.7.1 1.3.3 2 .3h.5C6.1 10.2 6 9.4 6 9c0-1.8 1.7-3.8 4-4 .3 0 1.2-.1 1.4-.1-.5-2.2-3-3.9-5.7-3.9zm-2 3.9c-.4 0-.7-.4-.7-.8s.3-.7.7-.7c.4 0 .8.3.8.7 0 .4-.4.8-.8.8zm4 0c-.4 0-.8-.3-.8-.7 0-.4.3-.7.8-.7.4 0 .8.3.8.7-.1.3-.4.7-.8.7z"/></g></g><path id="eaXMLID_19_" class="east0" d="M12 12l2 2v-2h-2"/><path id="eaXMLID_8_" class="east0" d="M11.5 6C9 6 7 7.6 7 9.5S9 13 11.5 13 16 11.5 16 9.5C16 7.6 14 6 11.5 6zm-2 3c-.3 0-.5-.2-.5-.5s.2-.5.5-.5.5.2.5.5-.2.5-.5.5zm3 0c-.3 0-.5-.2-.5-.5s.2-.5.5-.5.5.2.5.5-.2.5-.5.5z"/></svg><svg id="weibo" viewBox="-1 -1 18 18" width="18" height="18" x="54" y="224"><style>.ebst0{fill:#fff}</style><g id="ebXMLID_2_"><g id="ebXMLID_83_"><path id="ebXMLID_84_" class="ebst0" d="M14.9 2.4c-1.1-1.2-2.6-1.6-4-1.3-.3.1-.5.4-.5.7.1.3.4.5.7.5 1-.2 2.1.1 2.9.9.7.8.9 2 .6 3-.1.3.1.7.4.8.3.1.7-.1.8-.4.4-1.4.2-3-.9-4.2zm-1.8 3.8c.3.1.6-.1.7-.3.2-.7.1-1.5-.4-2-.5-.6-1.3-.8-2-.6-.3.1-.5.3-.4.6.1.3.3.5.6.4.3-.1.7 0 1 .3.3.3.3.7.2 1-.2.2 0 .5.3.6zM12 7.3c-.2-.1-.5-.1-.3-.4.3-.6.4-1.2.1-1.6-.5-.7-1.9-.7-3.6 0 0 0-.5.2-.4-.2.3-.9.2-1.5-.2-1.9-.9-.9-3.2 0-5.2 2.1C.9 6.7 0 8.3 0 9.7 0 12.4 3.4 14 6.7 14c4.4 0 7.2-2.5 7.2-4.5.1-1.3-1-2-1.9-2.2zM6.7 13c-2.6.3-4.9-.9-5.1-2.7C1.4 8.6 3.5 7 6.1 6.7c2.6-.3 4.9.9 5.1 2.7.2 1.7-1.8 3.4-4.5 3.6zM7 8.1c-1.3-.4-2.7.3-3.2 1.4-.6 1.1 0 2.4 1.3 2.8 1.3.4 2.9-.2 3.4-1.5C9 9.6 8.3 8.4 7 8.1zM6 11c-.3.4-.8.6-1.2.4-.4-.2-.5-.7-.3-1.1.3-.4.8-.6 1.2-.4.4.2.6.7.3 1.1zm.9-1.1c-.1.2-.3.2-.5.2-.1-.1-.2-.3-.1-.4.1-.2.3-.2.4-.2.2 0 .3.2.2.4z"/></g></g></svg><svg width="13" height="9" viewBox="-1 -1 13 9" id="xiala" x="248" y="233"><path fill-rule="evenodd" clip-rule="evenodd" fill="#999" d="M10.5 1.4L9.8.6 5.5 4.9 1.2.6l-.7.8 4.3 4.2.7.8v-.1.1l.7-.8z"/></svg></svg>